<?xml version="1.0" standalone="no"?>
<!DOCTYPE svg PUBLIC "-//W3C//DTD SVG 20010904//EN"
 "http://www.w3.org/TR/2001/REC-SVG-20010904/DTD/svg10.dtd">
<svg version="1.0" xmlns="http://www.w3.org/2000/svg"
 width="1000.000000pt" height="1000.000000pt" viewBox="0 0 1000.000000 1000.000000"
 preserveAspectRatio="xMidYMid meet">
<metadata>
Created by potrace 1.14, written by Peter Selinger 2001-2017
</metadata>
<g transform="translate(0.000000,1000.000000) scale(0.100000,-0.100000)"
fill="#000000" stroke="none">
<path d="M5033 8233 c9 -2 25 -2 35 0 9 3 1 5 -18 5 -19 0 -27 -2 -17 -5z"/>
<path d="M4790 8211 c0 -16 28 -20 40 -5 10 12 8 14 -14 14 -14 0 -26 -4 -26
-9z"/>
<path d="M4978 8213 c18 -2 45 -2 60 0 15 2 0 4 -33 4 -33 0 -45 -2 -27 -4z"/>
<path d="M4570 8191 c-84 -17 -84 -17 -45 -25 22 -4 61 -7 88 -6 44 1 60 -10
37 -25 -22 -14 -8 -25 33 -25 23 0 49 -5 57 -10 11 -8 5 -10 -25 -10 -22 1
-59 -2 -82 -6 -28 -4 -43 -3 -43 4 0 6 6 13 13 16 18 8 -104 -4 -133 -14 -130
-42 -192 -48 -146 -14 18 13 13 14 -47 14 -56 0 -68 -3 -77 -20 -6 -12 -20
-19 -38 -18 -44 1 -154 -20 -165 -31 -6 -6 -22 -11 -35 -11 -16 0 -26 -7 -29
-20 -4 -14 -11 -19 -23 -15 -28 9 -107 8 -121 -1 -8 -5 -20 -9 -27 -10 -7 -1
-28 -14 -46 -27 -18 -14 -51 -30 -74 -36 -23 -7 -44 -16 -47 -21 -4 -6 -23
-19 -43 -29 -34 -18 -175 -141 -161 -141 3 0 24 9 47 20 46 22 56 25 47 10 -9
-15 37 -12 60 3 11 7 38 14 59 16 34 2 38 0 26 -13 -7 -9 -16 -14 -20 -11 -4
2 -15 -4 -25 -15 -10 -11 -22 -20 -26 -20 -13 0 -142 -84 -157 -102 -10 -13
-9 -15 12 -11 13 3 34 14 46 25 16 15 29 18 53 14 23 -4 48 2 86 19 30 14 56
23 59 20 3 -3 -1 -5 -8 -5 -7 0 -10 -3 -7 -7 10 -10 -25 -32 -52 -33 -27 0
-110 -37 -126 -56 -14 -16 -45 -26 -45 -14 0 6 -9 6 -25 0 -15 -6 -26 -6 -30
1 -4 5 -15 -1 -26 -14 -25 -32 -79 -57 -124 -57 -33 0 -36 -2 -30 -21 5 -13 3
-19 -3 -15 -5 3 -16 -8 -24 -25 -8 -16 -46 -65 -85 -107 -127 -140 -161 -206
-203 -391 -26 -114 7 -327 75 -486 30 -71 38 -84 55 -88 10 -3 20 -18 24 -40
4 -20 14 -53 23 -74 l16 -38 13 32 c7 17 27 98 44 180 29 144 47 217 49 199 1
-5 12 3 26 18 16 17 34 26 55 26 16 0 30 5 30 10 0 6 8 10 18 10 20 0 122 87
122 105 0 6 16 27 35 46 19 19 38 44 42 56 11 29 133 163 149 163 7 0 17 6 21
13 12 19 70 57 88 57 8 0 15 6 15 13 0 15 86 47 128 47 16 0 35 7 42 15 7 8
22 15 34 15 11 0 43 7 70 15 32 10 53 12 61 5 8 -6 23 -1 48 16 23 15 37 20
37 12 0 -9 3 -9 11 -1 9 9 16 9 30 0 10 -6 22 -8 26 -4 4 5 1 12 -7 17 -46 29
92 38 201 14 43 -10 79 -22 79 -26 0 -4 7 -8 15 -8 8 0 15 -4 15 -10 0 -5 9
-10 20 -10 11 0 20 7 20 15 0 19 31 55 47 55 19 0 16 -17 -4 -29 -10 -5 -14
-13 -10 -17 5 -5 12 -3 16 4 10 17 39 5 46 -19 5 -14 16 -19 40 -19 39 0 65
-8 65 -21 0 -12 -87 -11 -95 1 -3 6 -17 10 -30 10 -13 0 -27 5 -30 10 -3 6
-13 10 -21 10 -26 0 3 -37 33 -43 16 -3 53 -13 83 -22 30 -9 102 -25 160 -35
58 -11 106 -19 108 -20 1 0 2 -7 2 -15 0 -10 9 -15 28 -14 23 0 24 2 7 8 -17
7 -16 9 10 16 17 4 39 9 50 10 11 2 33 8 48 14 39 15 47 14 47 -9 0 -11 5 -20
10 -20 6 0 10 7 10 15 0 8 9 15 20 15 23 0 27 -25 6 -33 -12 -5 -31 -55 -24
-62 2 -2 15 -6 31 -10 21 -6 27 -4 27 10 0 9 9 19 20 22 11 3 20 9 20 14 0 5
12 9 26 9 20 0 25 -4 20 -16 -3 -9 -6 -27 -6 -40 0 -19 -5 -24 -25 -24 -14 0
-25 -4 -25 -10 0 -5 8 -10 19 -10 15 0 37 -37 28 -47 -9 -8 -47 12 -52 28 -4
10 -12 19 -20 19 -7 0 -15 6 -18 13 -6 18 -14 6 -22 -34 -6 -32 -4 -37 17 -42
12 -4 35 -7 49 -7 34 0 44 -25 18 -44 -18 -12 -19 -17 -7 -36 10 -18 10 -24 1
-27 -16 -6 -17 -33 -2 -33 6 0 19 4 29 10 23 12 50 3 50 -17 0 -9 -6 -13 -15
-10 -8 4 -17 2 -20 -3 -4 -6 -12 -10 -20 -10 -8 0 -26 -11 -40 -25 -20 -18
-37 -24 -64 -22 -35 2 -36 1 -39 -35 -3 -39 -50 -98 -77 -98 -8 0 -16 -18 -20
-49 -9 -68 -41 -91 -110 -81 -28 4 -66 13 -85 19 -77 26 -123 30 -159 15 -19
-8 -41 -12 -48 -10 -7 3 -15 1 -18 -4 -4 -6 -29 -10 -57 -10 -27 0 -62 -6 -76
-14 -53 -27 -98 -35 -177 -32 -44 2 -107 -1 -141 -6 -44 -8 -70 -8 -94 0 -28
10 -33 10 -37 -8 -3 -11 -15 -20 -32 -22 -14 -2 -24 -5 -21 -8 8 -8 -24 -39
-33 -33 -21 13 -56 -21 -62 -58 -4 -23 -15 -43 -26 -49 -30 -17 -51 -66 -43
-105 4 -21 2 -35 -4 -35 -14 0 -22 -38 -8 -43 6 -2 -3 -4 -21 -5 -17 0 -79
-13 -138 -27 l-105 -27 -20 24 c-10 13 -27 39 -37 58 -20 39 -23 43 -59 87
-49 62 -182 79 -243 32 -13 -11 -29 -19 -36 -19 -6 0 -22 -11 -35 -25 -15 -16
-30 -23 -42 -19 -13 4 -18 0 -18 -15 0 -11 -8 -22 -18 -26 -11 -3 -25 -18 -33
-33 -7 -15 -15 -30 -17 -33 -1 -4 10 -10 25 -14 28 -8 27 -8 -12 -16 -22 -4
-58 -10 -80 -14 -76 -12 -86 -16 -105 -35 -11 -11 -20 -29 -20 -39 0 -18 6
-16 68 16 l67 35 110 -5 c61 -3 130 -12 155 -20 l45 -15 -37 1 c-29 0 -42 -6
-65 -33 -15 -18 -32 -39 -36 -47 -9 -14 -4 -65 8 -95 4 -11 3 -18 -4 -18 -6 0
-11 5 -11 10 0 6 -12 28 -26 50 -31 47 -48 49 -155 23 -62 -15 -71 -15 -101 0
-18 8 -36 13 -40 11 -4 -3 -8 3 -8 14 0 17 -7 19 -62 16 -69 -2 -155 -30 -171
-55 -16 -26 0 -65 33 -79 41 -17 77 -62 91 -113 52 -197 112 -320 209 -423 92
-98 197 -143 335 -145 46 0 63 -3 50 -9 -18 -7 -18 -8 8 -15 37 -10 49 3 41
44 -5 25 -10 30 -23 25 -31 -14 -173 -16 -212 -4 -46 16 -52 32 -9 23 46 -9
35 9 -24 39 -40 20 -56 24 -65 15 -9 -9 -24 1 -64 41 -54 55 -38 63 19 10 19
-17 37 -26 46 -23 9 4 33 2 53 -4 20 -5 43 -7 51 -4 21 8 17 33 -6 33 -34 0
-180 51 -180 62 0 6 -6 19 -14 27 -28 31 -104 196 -110 241 -16 100 -17 128
-8 134 6 3 8 16 5 27 -6 20 -3 21 28 16 19 -4 84 -9 144 -13 116 -6 165 -18
165 -40 0 -7 10 -18 21 -25 20 -10 21 -9 15 14 -3 14 -9 32 -12 41 -3 9 -2 16
2 16 14 0 54 -67 54 -89 0 -23 19 -32 43 -19 9 5 22 6 27 3 6 -4 10 -3 9 2 -4
22 3 31 29 38 55 13 67 28 70 91 2 32 5 60 6 61 2 2 17 -2 35 -8 24 -9 38 -23
51 -52 22 -48 20 -53 -21 -62 -17 -4 -33 -13 -36 -22 -3 -8 -12 -12 -19 -9 -8
3 -14 2 -14 -2 0 -4 -19 -8 -41 -9 -48 -2 -52 -4 -43 -27 4 -12 9 -14 14 -7 4
7 12 2 20 -14 7 -14 21 -25 31 -25 12 0 16 -5 13 -15 -4 -8 -14 -15 -24 -15
-14 0 -20 -12 -27 -52 -10 -65 -3 -68 64 -34 59 29 59 29 116 136 24 47 56
105 71 130 40 69 55 106 58 138 2 28 4 30 38 25 68 -11 73 -18 83 -111 4 -35
1 -48 -20 -72 -14 -17 -29 -28 -33 -25 -14 9 -23 -16 -11 -28 14 -14 14 -37 1
-37 -5 0 -10 7 -10 15 0 8 -7 15 -15 15 -18 0 -20 -31 -3 -48 9 -9 6 -17 -12
-37 -19 -20 -20 -25 -8 -30 9 -4 14 -14 11 -25 -3 -10 0 -21 6 -24 13 -9 15
-53 2 -61 -5 -3 -12 -19 -16 -35 -4 -17 -16 -35 -27 -41 -18 -10 -18 -12 -4
-28 9 -10 16 -24 16 -32 1 -16 45 -69 58 -69 5 0 17 -9 26 -19 17 -19 17 -20
-3 -30 -11 -6 -42 -14 -68 -18 -31 -4 -61 -17 -84 -35 -20 -16 -40 -28 -45
-27 -25 4 -34 -4 -34 -31 0 -18 -5 -30 -13 -30 -8 0 -19 -11 -27 -24 -11 -21
-10 -28 9 -55 31 -43 70 -71 100 -71 43 0 71 -11 71 -29 0 -9 -27 -47 -60 -84
-65 -74 -73 -88 -36 -64 l24 16 -8 -35 c-5 -20 -11 -38 -13 -41 -3 -2 3 -28
12 -56 13 -36 16 -60 10 -75 -7 -17 -4 -32 8 -52 14 -24 14 -31 4 -44 -8 -9
-21 -16 -31 -16 -22 0 -44 25 -35 40 3 5 0 10 -7 10 -8 0 -21 9 -31 20 -20 23
-42 27 -34 5 4 -8 2 -17 -3 -20 -6 -4 -7 -17 -4 -31 3 -13 1 -31 -5 -38 -7 -8
-11 -38 -10 -68 1 -29 -4 -66 -10 -81 -8 -21 -8 -34 0 -49 9 -17 9 -20 -2 -16
-12 5 -13 -9 -5 -79 9 -80 8 -84 -12 -99 -31 -21 -28 -40 3 -20 22 14 25 14
25 1 0 -20 49 -16 70 5 8 9 30 47 49 85 51 108 63 129 75 140 6 6 19 22 29 38
21 32 31 34 60 7 22 -21 68 -20 75 1 2 5 31 9 65 9 34 1 76 7 92 15 l30 13
-32 1 c-17 1 -35 6 -38 11 -4 7 -14 5 -28 -5 -24 -17 -83 -20 -92 -5 -3 5 -19
7 -34 4 -26 -5 -29 -3 -33 26 -4 29 -1 34 24 44 15 6 31 19 34 29 12 38 104
49 104 12 0 -22 18 -18 25 5 3 11 16 22 28 25 103 23 107 23 117 5 10 -19 2
-88 -13 -108 -14 -18 -2 -25 22 -12 15 7 27 8 40 1 14 -8 20 -7 25 4 6 16 73
47 94 43 10 -2 3 -17 -22 -48 l-36 -45 35 -9 c37 -9 43 -7 90 24 17 11 42 25
58 31 15 6 27 17 27 25 0 8 11 13 28 13 15 -1 46 4 69 10 42 11 84 3 97 -18 4
-5 26 -13 51 -17 45 -6 85 -31 85 -53 0 -6 6 -11 13 -11 9 0 9 -2 -1 -9 -12
-7 -11 -14 2 -39 23 -45 21 -80 -5 -84 -17 -2 -22 -11 -24 -37 -2 -20 -11 -40
-21 -48 -11 -7 -24 -17 -31 -22 -8 -8 -13 -4 -15 12 -3 14 -7 5 -12 -26 -7
-40 -12 -48 -27 -44 -28 7 -62 -30 -57 -64 3 -18 0 -29 -7 -29 -7 0 -15 -17
-19 -38 -5 -33 -9 -38 -33 -37 -22 0 -31 -7 -43 -32 -16 -35 -30 -43 -30 -17
0 8 -4 12 -10 9 -6 -3 -10 -24 -10 -45 0 -40 -29 -80 -57 -80 -15 0 -17 16 -3
25 15 9 12 25 -5 25 -8 0 -15 -7 -15 -15 0 -8 -5 -15 -11 -15 -7 0 -18 -8 -25
-17 -13 -17 -13 -17 -14 0 0 9 5 17 10 17 15 0 12 19 -4 36 -19 18 -22 18 -30
-3 -4 -9 -1 -20 6 -25 10 -6 10 -8 -1 -8 -8 0 -22 7 -32 16 -17 15 -17 14 -13
-19 3 -29 0 -37 -16 -42 -11 -3 -20 -9 -21 -13 0 -4 -3 -16 -5 -27 -3 -11 -6
-32 -7 -47 -3 -37 -13 -44 -29 -19 -16 26 -28 27 -28 1 0 -11 -4 -20 -10 -20
-5 0 -10 5 -10 10 0 6 -7 10 -15 10 -8 0 -15 5 -15 12 0 9 -3 9 -11 1 -15 -15
-39 7 -39 37 0 12 -4 18 -10 15 -6 -3 -10 -17 -10 -30 0 -28 -38 -58 -67 -53
-13 2 -17 -3 -16 -17 1 -11 0 -27 -3 -35 -4 -13 -6 -13 -15 0 -8 13 -10 13
-19 0 -8 -12 -10 -9 -10 13 0 15 -3 27 -6 27 -9 0 -34 -28 -34 -39 0 -5 -5
-13 -11 -17 -8 -4 -9 4 -4 27 4 25 3 30 -4 19 -6 -9 -11 -10 -11 -3 0 15 -29
10 -41 -8 -6 -10 -9 -7 -9 12 0 15 -6 32 -14 38 -11 9 -15 7 -19 -11 -9 -32
-46 -70 -60 -61 -7 4 -20 6 -29 5 -10 -2 -18 3 -18 10 0 7 -9 -2 -20 -19 -28
-46 -33 -41 -10 10 25 53 26 89 4 80 -15 -5 -15 -3 0 26 15 29 14 36 -8 32 -5
-1 -6 5 -3 14 5 10 0 15 -13 15 -11 0 -20 5 -20 10 0 6 4 10 9 10 5 0 11 9 14
20 5 19 2 20 -31 15 -35 -6 -36 -5 -18 9 11 9 26 16 33 16 7 0 13 5 13 11 0 7
-10 9 -26 5 -19 -5 -25 -3 -22 6 3 7 11 13 19 13 7 0 15 8 17 18 2 10 -3 17
-12 17 -9 0 -16 11 -18 27 -2 21 -8 27 -22 25 -14 -3 -18 1 -14 16 7 25 -6 47
-21 38 -6 -4 -9 -11 -7 -15 8 -12 -37 -6 -63 8 -22 12 -23 12 -17 -4 5 -14 2
-16 -15 -12 -19 5 -20 3 -14 -21 4 -15 8 -38 10 -52 4 -38 31 -93 54 -115 12
-10 21 -26 20 -34 -1 -9 6 -33 15 -54 9 -21 19 -51 23 -68 3 -16 18 -41 32
-57 26 -25 81 -136 81 -161 0 -6 4 -11 8 -11 5 0 14 -17 20 -39 7 -21 19 -44
27 -51 8 -7 15 -19 15 -26 0 -8 5 -14 10 -14 7 0 10 -20 9 -50 -2 -28 -7 -50
-13 -50 -6 0 -5 -5 2 -12 15 -15 103 -28 123 -17 12 6 18 4 22 -10 5 -19 37
-25 37 -7 0 6 5 3 11 -6 7 -13 23 -18 60 -18 47 0 50 -2 47 -22 -2 -17 -9 -22
-26 -21 -24 3 -64 -25 -56 -39 3 -4 0 -9 -5 -9 -26 -3 -30 -4 -37 -11 -4 -5
-12 -8 -18 -8 -6 0 -6 4 1 11 15 15 5 39 -16 40 -9 0 0 6 19 13 19 7 35 17 35
22 -1 13 -85 29 -93 18 -4 -5 -22 -9 -41 -9 -25 0 -36 5 -42 20 -4 11 -8 14
-8 6 -1 -8 -7 -11 -17 -7 -9 4 -13 2 -8 -5 4 -7 0 -9 -13 -5 -12 4 -29 -1 -44
-12 -13 -11 -29 -17 -36 -15 -16 6 -63 -26 -63 -42 0 -19 -27 -38 -35 -25 -5
8 -14 6 -31 -4 -13 -9 -31 -16 -41 -16 -50 -1 -185 -59 -218 -94 -11 -12 -34
-32 -50 -46 -17 -14 -38 -37 -48 -53 -23 -35 -5 -36 54 -2 29 16 60 25 88 25
43 0 51 -8 14 -15 -10 -2 -18 -4 -18 -5 0 -1 -9 -3 -20 -5 -11 -2 -28 -14 -39
-27 -10 -13 -25 -22 -32 -20 -8 2 -14 -2 -14 -9 0 -6 -6 -9 -14 -6 -8 3 -17
-1 -20 -9 -3 -9 -10 -12 -16 -9 -6 3 -10 -5 -10 -19 0 -13 -6 -26 -12 -29 -9
-3 -8 -10 6 -26 19 -21 19 -21 -2 -21 -24 0 -38 17 -33 44 2 14 -2 17 -14 12
-9 -3 -20 -6 -23 -6 -4 0 -2 -4 5 -8 6 -4 15 -21 19 -37 7 -27 6 -29 -9 -16
-15 12 -17 11 -17 -3 0 -9 5 -16 10 -16 7 0 7 -8 -1 -22 l-12 -22 -8 21 c-4
11 -13 24 -20 29 -8 4 -10 3 -5 -5 4 -6 1 -14 -7 -17 -20 -7 -2 -82 24 -106
15 -13 19 -31 20 -81 1 -36 -2 -71 -6 -79 -6 -10 -5 -11 6 0 20 18 29 15 29
-11 0 -17 -6 -23 -22 -23 -13 0 -28 7 -35 15 -9 13 -11 11 -10 -12 2 -21 6
-25 20 -21 26 8 21 -25 -5 -36 -13 -5 -17 -9 -10 -9 17 -1 15 -28 -3 -35 -9
-3 -15 -18 -15 -36 0 -20 5 -30 15 -30 8 0 15 -4 15 -9 0 -11 -25 -21 -52 -21
-14 0 -18 -5 -14 -16 4 -9 1 -23 -5 -30 -7 -9 -9 -31 -6 -55 4 -30 1 -45 -11
-58 -21 -22 -56 -83 -54 -93 1 -5 -5 -8 -13 -8 -8 0 -15 -8 -15 -18 0 -19 -26
-49 -45 -52 -18 -3 -18 -9 -2 -16 13 -5 14 -9 4 -24 -7 -12 -15 -16 -22 -10
-6 5 -24 6 -40 1 -28 -7 -28 -8 -10 -18 19 -11 19 -12 0 -33 -10 -11 -24 -19
-31 -16 -7 3 -15 -2 -18 -10 -8 -22 -8 -24 9 -24 20 0 19 -14 -2 -31 -13 -11
-17 -11 -21 -1 -3 10 -7 10 -18 1 -8 -6 -11 -15 -8 -20 3 -5 -2 -9 -11 -9 -13
0 -16 6 -11 26 4 15 3 23 -2 20 -14 -8 -22 -45 -11 -52 15 -9 10 -34 -6 -34
-8 0 -15 -6 -15 -13 0 -9 -10 -12 -31 -9 -22 3 -30 1 -28 -9 4 -20 -20 -61
-32 -54 -5 4 -16 -9 -23 -27 l-15 -33 -9 25 c-9 22 -11 23 -17 8 -12 -30 -25
-20 -18 14 4 22 3 29 -5 24 -7 -4 -12 -20 -12 -36 0 -18 -8 -34 -22 -44 -31
-22 -38 -20 -38 8 0 14 -4 27 -9 31 -9 5 -16 -21 -23 -84 -4 -29 -47 -41 -60
-16 -12 21 -30 19 -27 -2 3 -35 -1 -45 -16 -40 -8 4 -17 2 -21 -4 -3 -6 -12
-8 -20 -5 -7 3 -16 1 -19 -4 -4 -6 -17 -7 -30 -4 -13 3 -32 1 -43 -5 -17 -9
-21 -6 -28 22 l-8 32 -4 -40 c-3 -41 -22 -75 -22 -41 0 14 -5 16 -29 11 -26
-6 -28 -4 -24 20 3 14 9 28 14 31 5 3 9 14 9 24 0 21 54 55 70 45 6 -3 10 3
10 14 0 25 -20 39 -20 14 -1 -17 -1 -17 -15 1 -11 14 -11 21 -2 31 9 9 14 10
19 1 5 -6 8 -2 8 11 0 12 -4 23 -10 25 -6 2 -7 19 -1 48 9 44 9 44 10 10 1
-32 3 -33 13 -15 7 11 13 31 13 45 4 62 6 70 15 70 5 0 7 -22 4 -52 -5 -51 -4
-52 11 -30 9 12 20 20 25 17 5 -3 10 5 12 17 2 17 11 24 31 26 22 3 27 8 27
31 0 15 5 32 12 39 9 9 9 15 1 23 -16 16 -49 -5 -70 -44 -13 -25 -18 -28 -21
-14 -2 9 -5 17 -6 17 -2 0 -43 -22 -92 -50 l-89 -49 -1 -73 c0 -42 -7 -88 -16
-109 -40 -92 -133 -151 -239 -150 -69 0 -113 19 -165 69 -50 49 -74 108 -77
188 l-2 67 -283 162 -283 163 -49 -33 c-27 -18 -67 -36 -88 -40 -31 -5 -46
-16 -78 -57 -21 -27 -54 -66 -71 -87 -18 -20 -33 -39 -33 -43 0 -9 -110 -82
-130 -86 -8 -2 -23 -12 -32 -23 -10 -11 -22 -18 -27 -14 -17 10 -52 -18 -73
-59 -11 -21 -33 -51 -49 -67 -16 -15 -29 -31 -29 -34 0 -4 -11 -21 -25 -39
-14 -18 -25 -40 -25 -49 0 -9 -9 -31 -20 -49 -19 -32 -20 -51 -20 -491 l0
-457 1174 0 1174 0 39 29 c22 16 59 47 83 69 24 22 49 38 56 35 6 -2 15 4 18
14 4 10 2 19 -3 21 -6 2 -11 8 -11 14 0 5 9 7 19 3 14 -4 25 3 41 25 17 25 28
30 45 26 33 -9 59 3 45 19 -8 10 -7 20 5 39 18 28 30 32 40 16 9 -15 22 -4 29
25 8 32 94 125 116 125 10 0 20 7 24 15 3 8 14 15 25 15 30 0 51 11 51 26 0
34 35 85 67 96 18 7 33 18 33 25 0 6 16 15 36 19 23 4 38 14 43 27 5 12 10 16
14 10 9 -14 49 -4 60 14 4 7 14 13 22 13 7 0 15 3 17 8 2 4 17 15 33 24 17 9
31 25 33 36 2 13 11 20 25 20 12 -1 46 6 76 13 53 14 83 40 94 84 2 11 5 2 6
-20 1 -22 5 -46 10 -54 11 -17 31 -6 31 18 0 11 8 37 18 59 15 35 20 38 29 24
9 -15 11 -12 17 16 8 32 30 43 39 20 3 -8 9 -1 16 15 7 19 18 27 35 27 15 0
26 7 29 17 4 17 5 17 6 1 0 -10 6 -18 11 -18 6 0 8 -11 4 -27 -4 -16 -4 -25 0
-22 4 4 9 28 12 55 5 55 14 72 14 26 0 -41 16 -41 24 -1 3 17 10 28 16 24 6
-3 13 1 16 9 9 25 24 8 24 -27 0 -24 -3 -28 -12 -19 -16 16 -28 15 -28 -2 0
-14 37 -29 44 -18 2 4 7 28 11 53 6 38 10 46 25 42 10 -3 23 -17 30 -31 12
-25 13 -26 20 -7 4 11 5 26 3 33 -4 8 0 10 11 6 9 -4 16 -1 16 6 0 7 9 3 20
-10 11 -13 20 -27 20 -32 0 -4 5 -8 10 -8 13 0 13 47 0 55 -5 3 -10 18 -9 33
0 16 3 21 6 12 3 -8 10 -26 16 -40 5 -14 10 -38 11 -55 1 -23 5 -29 19 -27 21
4 22 -5 3 -24 -10 -9 -13 -26 -9 -49 4 -28 2 -35 -11 -35 -10 0 -16 -9 -17
-22 0 -22 -1 -22 -10 2 -10 23 -11 24 -21 7 -7 -13 -7 -31 0 -59 11 -42 2 -92
-12 -69 -4 7 -5 23 -2 36 4 16 1 25 -10 29 -26 10 -27 8 -20 -34 3 -22 2 -40
-3 -40 -11 0 -21 50 -21 108 0 25 -3 42 -7 38 -5 -4 -8 -21 -8 -37 0 -34 -17
-39 -27 -7 -8 30 -11 15 -8 -48 2 -58 -15 -81 -27 -37 -7 23 -9 16 -13 -37 -6
-73 3 -94 33 -84 16 5 27 -1 44 -22 l23 -29 0 30 c1 29 1 29 16 10 15 -19 16
-19 29 -1 17 22 35 13 35 -18 0 -19 4 -22 24 -19 21 4 27 -2 46 -44 l21 -48
30 33 c16 17 31 32 34 32 3 0 10 -11 15 -25 10 -27 40 -35 40 -10 0 11 7 10
35 -6 33 -20 34 -21 19 -45 -9 -13 -23 -24 -32 -24 -8 0 -13 -2 -11 -5 3 -2
22 -2 42 2 31 5 36 9 32 24 -5 15 -2 17 10 13 10 -4 15 -14 12 -25 -4 -14 0
-19 16 -18 73 0 167 -8 174 -15 4 -4 0 -14 -10 -21 -18 -13 -18 -14 0 -33 57
-61 61 -85 16 -97 -16 -4 -31 -1 -42 10 -10 8 -22 15 -27 15 -5 0 -20 9 -34
20 -32 25 -37 25 -42 -4 -3 -13 0 -23 6 -23 61 1 98 -15 79 -34 -8 -8 -21 -8
-50 2 -21 7 -44 14 -51 15 -20 4 -29 16 -15 21 20 7 -1 36 -41 57 -40 22 -53
17 -37 -12 8 -15 7 -23 -4 -32 -11 -9 -15 -9 -15 -1 0 6 -9 11 -20 11 -11 0
-20 6 -20 14 0 20 -21 31 -30 17 -4 -7 -12 -11 -18 -9 -6 2 -18 -6 -26 -17
-15 -20 -15 -20 -16 3 0 18 -4 22 -19 17 -12 -3 -21 0 -24 9 -5 13 -9 14 -34
1 -36 -19 -52 -19 -59 0 -4 8 -10 13 -14 10 -5 -3 -11 -1 -15 5 -9 15 -55 12
-55 -4 0 -14 -29 -31 -37 -22 -3 3 5 15 17 28 l21 23 -21 3 c-13 2 -30 -5 -42
-18 -11 -12 -27 -19 -35 -16 -8 3 -17 6 -19 6 -2 0 -4 7 -4 16 0 13 -3 14 -14
4 -12 -9 -17 -8 -27 8 -12 19 -49 20 -49 1 0 -5 -11 -14 -25 -19 -14 -5 -25
-14 -25 -20 0 -20 -19 -10 -22 13 -4 31 -51 36 -75 8 -21 -25 -93 -28 -132 -7
-32 18 -60 10 -54 -15 3 -10 9 -19 14 -19 16 0 10 -17 -8 -24 -10 -3 -24 -9
-30 -12 -10 -4 -11 3 -6 27 5 27 4 31 -10 26 -11 -4 -17 -1 -17 8 0 18 -20 31
-29 17 -3 -6 -15 -10 -26 -9 -16 2 -19 -3 -18 -23 2 -19 -4 -28 -24 -37 -36
-17 -40 -17 -39 10 1 13 -5 22 -14 22 -8 0 -19 5 -23 10 -6 6 -10 6 -14 -2 -2
-7 -11 -13 -18 -13 -7 0 -22 -17 -33 -37 -12 -22 -26 -36 -33 -34 -27 8 -63 3
-73 -12 -6 -7 -28 -17 -49 -21 -31 -6 -38 -11 -34 -26 2 -10 2 -22 -2 -27 -9
-13 -65 -48 -73 -45 -4 1 -12 -7 -18 -17 -7 -13 -20 -19 -44 -18 -20 1 -41 -6
-51 -17 -16 -15 -20 -16 -32 -3 -13 13 -20 11 -54 -11 -21 -14 -39 -31 -39
-38 0 -7 -8 -10 -19 -7 -21 5 -36 -23 -25 -51 6 -15 289 -16 3725 -16 l3719 0
0 203 c-1 197 -1 203 -24 231 -21 25 -29 28 -60 23 -20 -3 -38 -1 -41 4 -4 5
-17 9 -30 9 -13 0 -26 4 -29 9 -3 5 -15 7 -26 4 -11 -3 -30 4 -46 16 -15 12
-34 21 -43 21 -9 0 -36 7 -60 16 -25 8 -60 16 -80 18 -19 1 -36 7 -38 12 -2 5
-12 24 -23 42 -15 24 -27 32 -48 32 -15 0 -33 -5 -40 -12 -9 -9 -18 -7 -40 9
-21 16 -33 18 -46 11 -12 -7 -32 -6 -61 1 -55 14 -95 14 -95 1 0 -14 -27 -13
-32 1 -6 17 -156 29 -188 16 -14 -7 -28 -16 -31 -21 -4 -5 -26 -1 -50 8 -34
13 -55 15 -91 8 -29 -6 -50 -6 -57 1 -5 5 -15 6 -22 1 -7 -4 -41 -8 -75 -9
-44 -1 -69 -7 -82 -18 -18 -16 -20 -16 -45 3 -21 17 -28 18 -38 7 -7 -7 -26
-11 -46 -9 -25 3 -33 0 -33 -12 0 -8 -9 -20 -19 -26 -28 -14 -36 -12 -21 5 15
18 15 17 -29 35 -29 12 -34 11 -42 -2 -10 -19 -86 -23 -107 -5 -12 9 -16 9
-19 0 -3 -7 -20 -13 -38 -13 -19 0 -35 -6 -38 -14 -4 -9 -22 -13 -64 -11 -32
1 -70 -4 -84 -11 -14 -7 -35 -11 -46 -8 -11 3 -41 -4 -66 -15 -25 -12 -52 -21
-59 -21 -8 0 -19 -5 -24 -10 -7 -7 -19 -8 -37 -1 -24 9 -27 8 -27 -10 0 -17
-3 -18 -21 -8 -21 11 -38 0 -39 -23 0 -13 -28 -9 -43 7 -13 12 -16 12 -20 -6
-3 -12 -10 -18 -17 -14 -6 4 -17 1 -25 -5 -8 -6 -19 -9 -26 -5 -6 4 -24 -2
-39 -13 -15 -12 -40 -24 -54 -28 -14 -3 -29 -10 -32 -15 -3 -5 -14 -9 -25 -9
-10 0 -19 -4 -19 -10 0 -5 -7 -10 -15 -10 -19 0 -19 11 0 36 8 10 15 30 15 44
0 57 96 135 195 160 28 7 73 23 101 36 28 13 60 24 70 24 10 0 32 11 47 24 16
14 36 22 46 19 25 -6 35 12 16 31 -14 14 -13 16 11 22 16 4 35 2 46 -5 19 -12
40 -4 59 23 4 4 17 3 29 -4 13 -7 53 -12 89 -12 36 1 84 -3 106 -8 45 -10 48
-9 50 22 2 29 25 36 25 8 0 -19 4 -21 33 -15 17 4 42 19 53 33 20 25 24 26 48
13 14 -8 55 -15 91 -15 36 -1 65 -4 65 -8 0 -5 29 -8 65 -8 52 0 65 3 65 15 0
9 10 19 23 24 13 5 28 16 35 24 7 8 24 15 37 15 20 0 25 -6 25 -25 0 -14 4
-22 11 -18 5 4 26 -1 45 -10 33 -15 37 -15 53 -1 22 20 35 20 51 1 8 -9 21
-13 36 -9 13 4 30 2 37 -3 6 -5 52 -9 100 -8 49 1 91 -3 94 -8 3 -5 21 -6 39
-2 23 4 34 2 34 -6 0 -8 11 -9 38 -5 46 9 53 10 72 5 11 -3 14 4 11 29 -2 27
1 32 19 32 17 0 20 -4 15 -20 -7 -21 11 -54 25 -45 4 2 5 16 2 30 -4 22 -1 25
22 25 15 0 26 -6 26 -14 0 -17 74 -30 98 -18 25 13 42 4 42 -24 0 -27 27 -34
36 -9 12 30 119 7 146 -30 4 -5 22 -10 40 -10 32 0 33 -1 30 -42 -1 -23 2 -44
8 -48 6 -4 10 5 10 19 0 36 15 40 45 12 14 -14 40 -29 56 -35 l29 -10 0 755 0
754 -72 0 c-75 1 -92 4 -238 40 -47 12 -95 19 -107 17 -12 -2 -20 -1 -18 3 6
10 -60 20 -175 27 -57 3 -101 10 -110 18 -10 10 -20 11 -32 4 -12 -7 -31 -6
-56 1 -57 18 -269 -2 -287 -26 -9 -13 -25 -18 -54 -17 -40 2 -41 1 -41 -32 0
-39 -14 -52 -36 -34 -12 10 -17 8 -28 -7 -8 -10 -12 -22 -10 -25 7 -13 -41 3
-59 19 -9 8 -20 13 -23 9 -10 -9 7 -67 19 -67 8 0 8 -3 0 -11 -6 -6 -27 -11
-47 -11 -24 0 -36 -5 -36 -14 0 -8 -4 -14 -9 -14 -5 0 -11 -10 -14 -21 -4 -15
-11 -20 -22 -15 -38 14 -73 -42 -43 -72 9 -9 8 -12 -4 -12 -9 0 -19 8 -21 18
-3 9 -5 0 -6 -20 -1 -39 -9 -46 -29 -26 -9 9 -12 8 -16 -3 -2 -8 -7 -22 -10
-31 -3 -11 -15 -18 -31 -18 -21 0 -25 -5 -25 -27 0 -20 -3 -24 -9 -14 -5 7
-14 10 -20 7 -6 -4 -9 -12 -6 -17 12 -19 -26 -21 -40 -3 -21 27 -19 40 15 89
17 24 30 51 30 59 0 9 9 24 21 34 11 9 27 29 35 44 8 16 20 28 28 28 7 0 19
12 26 28 8 15 22 39 32 54 10 14 15 33 12 41 -7 19 20 73 40 80 8 3 52 11 98
18 45 6 119 18 163 26 277 49 297 50 452 17 40 -8 106 3 98 17 -4 5 -19 9 -34
9 -15 0 -61 9 -102 19 -71 19 -226 34 -299 30 -19 -1 -45 -1 -57 0 -53 3 -82
2 -143 -8 -36 -5 -78 -14 -93 -20 -39 -15 -40 -15 -33 19 6 35 -3 38 -29 10
-22 -24 -35 -26 -35 -4 0 8 -4 13 -9 10 -5 -3 -11 1 -15 9 -3 8 -12 15 -19 15
-8 0 -35 11 -61 25 -26 14 -58 25 -71 25 -13 0 -27 5 -30 10 -3 6 -18 10 -33
10 -15 0 -39 7 -55 15 -15 8 -58 17 -95 20 -37 3 -71 10 -76 16 -6 5 -20 9
-32 9 -12 0 -40 7 -63 15 -40 14 -41 14 -83 -18 -24 -18 -48 -43 -54 -56 -16
-31 -39 -53 -30 -28 3 10 6 24 6 32 0 7 9 15 20 18 11 3 24 16 30 29 5 12 15
30 22 39 17 24 5 43 -54 89 -29 23 -70 56 -90 72 -55 45 -131 92 -144 90 -6
-1 -37 7 -69 18 -32 11 -72 20 -89 20 l-30 0 30 -32 c38 -43 54 -72 54 -101 0
-20 -7 -24 -57 -33 -32 -6 -76 -10 -98 -10 -36 1 -40 4 -43 28 -4 35 -35 45
-69 23 l-25 -17 3 39 c3 22 1 44 -3 49 -4 5 -20 24 -35 43 -23 29 -135 91
-164 91 -21 0 -6 -30 44 -86 87 -97 97 -115 97 -178 0 -110 -93 -235 -278
-378 -24 -18 -58 -44 -76 -58 -70 -54 -124 -89 -209 -136 -49 -27 -123 -68
-165 -92 -43 -24 -102 -54 -132 -68 -30 -14 -68 -33 -85 -41 -51 -28 -58 -31
-130 -64 -103 -46 -128 -58 -145 -68 -29 -18 -88 -41 -103 -41 -8 0 -53 19
-99 43 -92 47 -236 108 -518 218 -74 29 -139 55 -145 59 -5 4 -28 13 -50 20
-70 21 -214 89 -360 170 -169 93 -422 324 -512 467 -42 68 -48 85 -51 144 l-4
67 53 -2 c79 -2 129 -24 130 -56 l0 -25 10 23 c8 22 36 26 32 5 -1 -5 14 -10
34 -11 39 -3 93 -27 93 -42 0 -6 5 -10 10 -10 6 0 36 -16 67 -36 30 -19 88
-46 127 -60 39 -14 83 -31 98 -39 14 -8 35 -15 47 -15 20 0 37 -6 116 -40 22
-10 51 -21 65 -25 14 -4 30 -11 35 -16 10 -8 161 -42 260 -59 74 -12 150 -5
149 14 -1 8 7 18 17 21 17 6 17 8 1 43 -9 20 -20 39 -24 40 -5 2 -8 9 -8 15 0
6 -7 18 -16 28 -19 21 -11 57 9 42 6 -6 31 -15 54 -20 56 -14 72 2 49 48 -21
42 -22 72 -1 45 12 -15 18 -17 27 -8 9 9 16 8 31 -6 18 -16 20 -16 38 7 19 23
20 23 39 6 19 -17 20 -17 20 0 0 15 2 15 16 4 10 -8 18 -9 22 -3 4 6 22 16 40
23 36 15 42 31 12 31 -12 0 -32 7 -45 16 -20 13 -22 19 -12 35 7 12 23 19 41
19 16 0 38 7 48 17 17 15 18 15 18 -1 0 -9 7 -19 15 -22 10 -4 13 -14 9 -30
-8 -30 15 -33 41 -4 19 21 14 50 -10 50 -8 0 -15 7 -15 15 0 8 5 15 10 15 6 0
10 -6 10 -12 0 -7 12 0 26 16 15 15 40 32 55 38 16 5 29 14 29 19 0 5 16 24
35 42 19 17 35 37 35 43 0 14 35 46 43 38 3 -3 3 -12 1 -19 -3 -7 1 -15 8 -17
10 -4 13 11 14 61 1 36 -2 71 -7 78 -7 7 -6 14 1 18 5 3 10 3 10 -1 0 -4 9 1
21 12 12 10 22 18 23 16 4 -11 59 22 63 37 3 11 11 22 19 25 30 11 12 22 -35
20 -40 -1 -48 2 -44 14 5 12 0 14 -20 10 -34 -7 -35 10 -2 46 22 24 31 27 64
21 50 -8 62 10 22 33 -34 19 -39 30 -16 38 23 9 18 24 -9 24 -34 0 -41 16 -19
48 17 27 18 27 21 5 4 -27 1 -26 41 -12 23 8 31 17 31 34 0 24 -15 42 -22 27
-1 -4 -14 -2 -28 6 l-25 14 26 -6 c39 -8 71 26 64 67 -5 23 -1 37 13 52 10 11
16 27 14 34 -3 9 0 11 8 6 9 -5 10 -2 5 14 -5 16 -3 20 9 15 17 -6 46 52 46
90 -1 20 -1 20 -14 3 -8 -11 -17 -14 -20 -8 -4 5 -2 12 3 15 4 3 11 19 14 36
4 16 13 30 21 30 7 0 20 7 27 17 13 14 11 16 -12 11 -25 -4 -27 -2 -39 51 -7
31 -19 64 -28 74 -15 16 -15 17 0 12 20 -8 33 12 19 29 -13 15 -5 27 13 20 9
-3 11 4 8 26 -2 16 1 37 8 45 6 8 9 19 5 25 -9 15 -28 1 -21 -16 8 -22 -22
-17 -34 5 -14 27 -13 34 6 27 13 -5 14 -1 9 25 -7 29 -5 31 14 26 18 -4 19 -3
10 15 -6 11 -17 17 -25 14 -20 -8 -19 52 1 74 14 15 14 18 -1 30 -13 12 -17
11 -24 0 -5 -8 -12 -11 -17 -7 -4 4 -2 17 5 27 13 22 16 63 5 74 -4 4 -15 -3
-25 -16 -13 -17 -18 -19 -18 -7 0 8 9 25 20 36 14 15 16 23 7 27 -8 3 -7 8 6
16 10 7 17 23 17 42 0 17 7 36 16 43 21 15 10 55 -15 55 -16 0 -17 6 -5 78 7
46 9 81 3 87 -5 5 -9 19 -9 32 0 14 -6 23 -16 23 -9 0 -14 6 -11 13 2 6 13 11
23 10 10 -1 13 0 7 3 -7 3 -13 17 -13 32 0 14 -5 63 -12 109 -10 72 -10 84 4
100 15 17 41 82 92 230 11 35 24 63 28 63 4 0 14 -13 23 -30 8 -16 25 -32 38
-36 28 -7 52 -39 66 -88 9 -33 7 -46 -12 -85 -17 -35 -22 -66 -23 -133 -2 -87
8 -111 26 -64 5 15 17 24 32 24 46 0 148 61 148 89 0 5 18 9 40 8 30 0 39 -3
35 -15 -2 -8 -7 -28 -11 -45 -4 -16 -14 -35 -21 -40 -10 -7 -12 -20 -7 -39 6
-27 8 -27 63 -24 50 4 56 7 53 25 -3 19 42 61 59 56 4 -1 4 7 1 19 -3 13 -1
19 5 15 7 -4 9 0 7 11 -3 9 3 26 13 37 10 11 24 34 30 50 11 26 48 185 60 255
10 58 14 70 23 70 6 0 6 -9 0 -26 -6 -14 -10 -51 -10 -82 0 -176 -47 -325
-149 -472 -46 -66 -81 -92 -130 -95 -75 -6 -90 2 -97 46 -4 21 -10 39 -15 39
-5 0 -9 8 -9 18 0 10 -12 27 -27 38 -36 26 -63 36 -63 24 0 -6 -7 -10 -16 -10
-13 0 -15 -7 -11 -35 7 -40 0 -43 -33 -15 -41 36 -43 34 -58 -83 -14 -109 -7
-127 57 -153 57 -22 106 -21 97 2 -7 19 23 18 44 -1 21 -19 56 -10 40 10 -8
10 -1 16 27 28 21 8 40 13 43 10 3 -3 -1 -8 -7 -10 -7 -3 -13 -9 -13 -15 0 -6
7 -8 15 -5 9 4 19 -5 29 -23 8 -17 11 -30 8 -30 -4 0 -8 -89 -9 -198 -1 -108
-3 -230 -3 -269 -1 -40 2 -78 6 -84 3 -6 10 -57 14 -114 9 -125 14 -137 47
-99 46 55 104 145 115 177 6 18 14 37 18 42 8 11 44 136 65 225 7 30 33 104
59 164 32 76 48 131 55 185 5 42 16 102 25 134 9 32 16 69 16 83 0 14 11 58
24 97 13 40 36 137 50 217 21 122 26 179 27 365 1 121 -1 274 -4 340 -6 113
-33 309 -45 329 -3 5 -6 48 -8 95 -5 158 -15 194 -108 374 -31 60 -56 114 -56
121 0 7 -8 21 -19 30 -10 9 -29 44 -41 77 -15 41 -26 59 -35 55 -17 -6 -40 19
-26 29 7 4 5 17 -6 38 -15 29 -17 30 -25 12 -7 -17 -8 -17 -4 4 4 18 -5 32
-35 59 -37 34 -57 70 -22 41 14 -12 13 -9 -3 21 -17 32 -19 33 -22 13 -5 -34
-29 -28 -43 12 -8 22 -20 35 -31 35 -10 0 -35 18 -55 40 -21 22 -45 40 -53 40
-9 0 -27 18 -40 40 -14 22 -29 40 -33 40 -16 0 -20 -34 -10 -86 9 -49 3 -73
-10 -41 -4 9 -8 8 -17 -3 -10 -13 -11 -12 -6 3 3 11 3 24 -1 30 -4 7 -8 18 -8
26 0 8 -9 19 -20 25 -11 6 -24 17 -28 24 -4 6 -14 12 -21 12 -7 0 -20 15 -28
33 -89 189 -110 227 -123 227 -21 0 -19 -12 6 -33 11 -10 18 -21 15 -24 -3 -3
-12 0 -20 6 -21 17 -35 6 -28 -22 5 -19 4 -20 -11 -9 -9 8 -21 11 -27 7 -6 -4
-10 5 -10 22 0 15 -9 51 -20 78 l-21 50 6 -63 6 -64 -26 19 c-14 10 -28 30
-32 46 -7 32 -23 46 -23 20 0 -15 -4 -14 -21 7 l-21 25 6 -25 c3 -14 9 -36 12
-50 9 -31 -3 -22 -24 21 -21 41 -47 53 -40 18 3 -13 9 -33 13 -43 16 -39 -13
-6 -44 49 -28 49 -34 54 -51 45 -17 -9 -20 -7 -25 17 -4 16 -11 38 -16 51 -5
13 -9 31 -9 41 0 18 -36 58 -44 50 -3 -2 6 -27 20 -54 27 -57 30 -81 10 -92
-12 -6 -13 -18 -5 -57 11 -59 4 -71 -14 -27 -20 47 -39 20 -31 -43 6 -38 4
-46 -9 -46 -13 0 -15 -7 -10 -30 7 -36 -9 -39 -27 -5 -7 14 -17 25 -22 25 -4
0 -8 9 -8 20 0 12 -8 35 -17 53 -20 39 -33 247 -14 247 6 0 11 -13 11 -30 0
-34 7 -38 26 -12 10 14 10 20 -1 32 -8 9 -11 21 -6 29 7 11 14 10 36 -5 l28
-18 -12 22 c-7 13 -23 27 -37 32 -13 5 -24 14 -24 20 0 5 -9 10 -20 10 -11 0
-20 5 -20 10 0 6 -8 10 -18 10 -10 0 -22 4 -27 9 -6 4 -23 11 -39 15 -23 6
-27 4 -23 -8 4 -10 1 -16 -7 -16 -7 0 -19 -7 -26 -15 -10 -12 -10 -16 1 -19
79 -22 99 -31 99 -43 0 -7 -4 -13 -10 -13 -5 0 -10 -7 -10 -15 0 -9 -9 -15
-24 -15 -14 0 -28 -4 -31 -10 -3 -5 -17 -10 -31 -10 -13 0 -34 -10 -46 -22
-12 -13 -33 -31 -47 -40 -28 -19 -86 -24 -96 -8 -3 6 4 10 16 10 20 0 134 58
127 65 -2 2 -44 11 -93 20 -50 9 -124 23 -165 31 -83 15 -242 13 -263 -4 -15
-13 -82 1 -93 20 -5 7 7 9 38 4 43 -6 98 7 98 24 0 7 -113 23 -175 25 -16 0
-45 7 -64 14 -26 11 -37 12 -52 3 -25 -16 -32 -15 -26 2 3 8 1 17 -6 20 -9 5
-9 7 1 12 14 7 6 24 -11 23 -7 0 -50 -9 -97 -18z m260 -116 c7 -9 10 -19 6
-22 -8 -9 -38 9 -44 25 -5 17 23 15 38 -3z m817 -17 c-3 -8 -6 -5 -6 6 -1 11
2 17 5 13 3 -3 4 -12 1 -19z m-873 3 c3 -4 -20 -13 -52 -19 -31 -6 -70 -14
-86 -18 -48 -12 -21 14 32 30 54 17 98 20 106 7z m-330 -20 c7 -10 -75 -31
-144 -37 -121 -10 -229 -28 -354 -60 -32 -8 -61 -13 -64 -10 -3 3 1 6 9 6 9 0
24 8 35 18 44 39 56 44 116 49 35 2 64 9 66 13 6 16 73 24 82 10 6 -10 20 -11
57 -3 30 6 55 6 64 0 9 -6 27 -4 49 6 40 18 76 21 84 8z m93 -17 c-3 -3 -12
-4 -19 -1 -8 3 -5 6 6 6 11 1 17 -2 13 -5z m476 -11 c-7 -2 -19 -2 -25 0 -7 3
-2 5 12 5 14 0 19 -2 13 -5z m608 -7 c5 3 9 1 9 -5 0 -5 -4 -13 -10 -16 -5 -3
-10 -4 -10 -1 0 2 -2 10 -3 18 -2 7 -2 10 0 5 3 -4 9 -5 14 -1z m-1772 -93
c-20 -24 -65 -40 -99 -35 -33 5 -31 22 3 22 12 0 40 7 62 15 51 18 50 18 34
-2z m-149 -37 c0 -3 -4 -8 -10 -11 -5 -3 -10 -1 -10 4 0 6 5 11 10 11 6 0 10
-2 10 -4z m550 -11 c0 -8 -4 -15 -10 -15 -5 0 -7 7 -4 15 4 8 8 15 10 15 2 0
4 -7 4 -15z m1240 -5 c0 -5 -12 -10 -26 -10 -14 0 -23 4 -19 10 3 6 15 10 26
10 10 0 19 -4 19 -10z m-1500 -9 c0 -12 -20 -25 -27 -18 -7 7 6 27 18 27 5 0
9 -4 9 -9z m200 -1 c0 -6 -39 -10 -97 -9 -64 0 -91 3 -78 9 28 12 175 12 175
0z m1346 1 c-7 -10 26 -20 69 -22 l30 -1 -35 -13 c-43 -16 -93 -20 -70 -5 12
7 8 10 -15 10 -21 0 -26 3 -16 9 7 5 10 14 7 20 -5 7 1 11 14 11 12 0 19 -4
16 -9z m-1795 -43 c5 -21 4 -28 -7 -28 -8 0 -14 5 -14 12 0 6 -8 20 -17 31
-17 18 -17 19 6 16 17 -3 27 -13 32 -31z m2159 8 c0 -8 -4 -18 -10 -21 -5 -3
-10 3 -10 14 0 12 5 21 10 21 6 0 10 -6 10 -14z m-2185 -36 c8 -12 -3 -50 -15
-50 -4 0 -10 8 -14 18 -3 9 -9 23 -12 30 -7 15 32 17 41 2z m2164 -43 c1 -5
-3 -5 -9 -2 -5 3 -10 16 -9 28 0 21 1 21 9 2 5 -11 9 -24 9 -28z m250 -86 c24
-33 26 -41 11 -41 -6 0 -15 11 -20 25 -5 14 -14 25 -20 25 -5 0 -10 5 -10 10
0 19 19 10 39 -19z m-326 -12 c19 -19 19 -21 3 -15 -17 6 -18 2 -12 -36 3 -24
2 -50 -4 -58 -7 -11 -10 -4 -10 26 0 23 -3 56 -6 73 -8 37 -1 39 29 10z m477
1 c0 -5 -4 -10 -9 -10 -6 0 -13 5 -16 10 -3 6 1 10 9 10 9 0 16 -4 16 -10z
m-370 -30 c0 -5 -2 -10 -4 -10 -3 0 -8 5 -11 10 -3 6 -1 10 4 10 6 0 11 -4 11
-10z m-260 -77 c0 -19 -3 -24 -10 -17 -6 6 -8 18 -4 27 9 24 14 21 14 -10z
m790 -51 c0 -15 -2 -15 -10 -2 -13 20 -13 33 0 25 6 -3 10 -14 10 -23z m-790
9 c0 -5 -7 -14 -15 -21 -12 -10 -15 -10 -15 2 0 8 3 18 7 21 9 10 23 9 23 -2z
m970 -31 c0 -13 -7 -20 -20 -20 -23 0 -26 10 -8 28 18 18 28 15 28 -8z m-1855
-190 c3 -5 -1 -10 -9 -10 -9 0 -16 5 -16 10 0 6 4 10 9 10 6 0 13 -4 16 -10z
m95 -45 c7 -9 29 -15 52 -15 49 0 47 -22 -3 -32 -19 -3 -43 -9 -55 -13 -15 -5
-23 0 -32 20 -7 14 -12 32 -12 40 0 20 34 19 50 0z m397 -81 c-3 -3 -12 -4
-19 -1 -8 3 -5 6 6 6 11 1 17 -2 13 -5z m126 -269 c4 -8 2 -17 -3 -20 -6 -4
-10 3 -10 14 0 25 6 27 13 6z m-66 -221 c-3 -3 -12 -4 -19 -1 -8 3 -5 6 6 6
11 1 17 -2 13 -5z m-43 -31 c-9 -37 -21 -50 -35 -36 -8 8 -8 17 0 31 6 10 7
22 4 26 -3 3 4 6 16 6 18 0 20 -4 15 -27z m-821 -380 c-7 -2 -19 -2 -25 0 -7
3 -2 5 12 5 14 0 19 -2 13 -5z m55 -84 c23 -10 42 -19 42 -21 0 -6 -110 -1
-117 5 -3 4 -21 7 -38 7 -18 0 -38 6 -44 14 -10 12 -6 15 26 18 49 5 78 0 131
-23z m1082 -69 c0 -6 7 -10 15 -10 8 0 15 -4 15 -10 0 -5 -5 -10 -12 -10 -6 0
-8 -3 -4 -7 4 -5 15 1 23 12 11 14 17 16 20 8 7 -18 23 -16 23 2 0 19 16 20
27 1 4 -7 15 -16 23 -19 12 -4 11 -6 -2 -6 -21 -1 -23 -29 -4 -53 17 -23 22
-23 29 2 3 13 14 20 28 20 18 0 20 -3 11 -12 -19 -19 -14 -29 11 -25 12 2 16
2 10 0 -13 -5 -19 -63 -6 -63 4 0 20 12 35 27 22 21 31 25 37 14 5 -7 12 -13
17 -14 5 -1 9 -18 10 -37 0 -19 7 -48 14 -65 21 -48 21 -134 -1 -182 -10 -23
-23 -45 -29 -48 -13 -8 -13 -55 0 -55 6 0 10 -7 10 -15 0 -8 -5 -15 -11 -15
-8 0 -10 -26 -8 -80 4 -76 3 -79 -20 -85 -16 -4 -27 0 -36 12 -12 15 -17 16
-34 6 -12 -7 -32 -13 -46 -13 -23 0 -31 -14 -26 -44 1 -4 -3 -13 -8 -20 -5 -6
-6 -29 -1 -56 8 -40 6 -47 -13 -62 -12 -10 -32 -18 -43 -18 -25 0 -41 -44 -24
-65 8 -9 8 -15 0 -20 -5 -3 -10 1 -10 9 0 25 -24 19 -42 -11 -15 -25 -15 -31
-1 -65 13 -32 13 -44 3 -68 -15 -35 -21 -37 -38 -10 -10 17 -10 20 3 20 8 0
15 9 15 19 0 15 -8 21 -32 23 -21 2 -32 9 -34 21 -1 11 -5 21 -7 24 -10 9 -47
-22 -47 -39 0 -21 -1 -21 -34 -8 -25 9 -26 9 -19 -35 4 -31 2 -45 -6 -45 -18
0 -53 23 -74 48 -10 12 -23 22 -28 22 -11 0 -12 -27 -1 -32 4 -1 18 -18 31
-37 20 -27 21 -35 10 -42 -8 -5 -20 -7 -26 -4 -8 3 -13 -5 -13 -22 0 -21 -2
-24 -15 -13 -8 7 -15 19 -15 26 0 20 -17 17 -23 -3 -4 -10 -13 -36 -21 -58 -9
-22 -16 -41 -16 -42 0 -2 9 -3 19 -3 28 0 37 -20 12 -27 -12 -3 -21 -10 -21
-15 0 -5 5 -6 10 -3 6 4 10 -7 10 -27 0 -18 -4 -28 -8 -23 -4 6 -19 10 -34 10
-39 1 -56 -34 -39 -81 7 -20 11 -38 8 -40 -2 -3 -8 7 -11 21 -5 21 -11 25 -29
19 -34 -10 -34 -13 2 -43 36 -31 35 -46 -5 -61 -13 -5 -24 -16 -24 -24 0 -25
-31 -108 -45 -123 -11 -11 -15 -8 -23 15 -10 25 -10 24 -11 -17 -1 -35 -4 -42
-17 -37 -10 4 -14 1 -11 -6 2 -7 -4 -24 -14 -37 -11 -13 -19 -29 -19 -36 0
-15 -28 -28 -42 -19 -5 3 -7 13 -4 21 3 8 1 24 -5 35 -6 12 -11 39 -11 62 1
22 -4 44 -10 47 -6 4 -11 26 -11 50 0 24 -5 48 -12 54 -16 13 -35 70 -35 105
0 32 -21 53 -42 45 -10 -4 -17 1 -21 16 -5 17 -11 20 -31 15 -26 -6 -37 8 -13
17 6 3 0 6 -15 6 -15 1 -30 5 -33 11 -9 15 -73 42 -84 36 -5 -4 -13 -1 -17 5
-5 9 -11 7 -20 -5 -12 -17 -13 -16 -24 3 -6 12 -15 19 -21 16 -5 -4 -9 5 -9
18 0 19 -5 25 -25 25 -14 0 -25 -5 -25 -10 0 -6 -7 -7 -16 -4 -10 4 -22 -1
-30 -11 -12 -16 -13 -15 -14 11 0 22 -4 27 -18 24 -24 -7 -27 31 -4 48 14 10
14 14 3 28 -10 12 -12 34 -7 85 4 51 3 70 -7 74 -6 3 -21 22 -32 43 -11 22
-24 42 -30 47 -7 4 -7 10 0 15 6 4 15 16 21 27 6 11 20 22 30 24 17 3 17 2 4
-15 -14 -16 -13 -17 5 -9 11 6 63 11 115 12 105 2 174 19 166 40 -3 7 2 13 11
13 9 0 13 3 9 7 -4 4 -23 6 -44 5 -32 -1 -35 0 -18 11 10 7 48 35 85 63 57 45
72 63 109 138 24 47 48 108 55 136 9 39 16 50 32 50 11 0 29 7 39 15 11 8 37
15 57 15 29 0 42 6 58 27 18 22 30 27 74 28 69 3 69 3 62 15 -8 12 51 70 71
70 8 0 14 5 14 10 0 6 9 10 20 10 11 0 29 9 39 19 12 12 27 17 40 14 17 -4 20
-2 15 11 -3 9 -13 16 -21 16 -8 0 -11 5 -8 10 5 8 11 7 20 0 19 -16 31 -6 38
30 8 36 0 60 -19 60 -8 0 -14 5 -14 11 0 7 9 9 23 5 30 -7 60 14 55 40 -6 33
27 49 108 51 44 2 74 -1 74 -7z m-1056 -15 c3 -9 0 -15 -8 -15 -8 0 -16 6 -19
13 -3 10 -9 10 -26 0 -27 -17 -31 -16 -31 2 0 11 11 15 39 15 25 0 41 -5 45
-15z m2480 -136 c32 -53 40 -75 44 -130 3 -49 0 -75 -12 -99 -9 -18 -16 -39
-16 -47 0 -8 -4 -12 -9 -9 -5 4 -5 22 0 43 21 90 10 158 -42 261 -37 73 -13
60 35 -19z m-3711 34 c-7 -2 -21 -2 -30 0 -10 3 -4 5 12 5 17 0 24 -2 18 -5z
m1317 -78 c0 -5 -5 -3 -10 5 -5 8 -10 20 -10 25 0 6 5 3 10 -5 5 -8 10 -19 10
-25z m-935 -43 c-3 -4 -10 0 -15 8 -6 9 -5 17 3 22 13 8 24 -19 12 -30z m3099
12 c9 -8 16 -21 16 -27 1 -7 7 -48 15 -92 16 -87 19 -165 8 -165 -13 0 -62
103 -69 145 -3 22 -8 66 -10 98 -4 61 8 73 40 41z m-3406 -14 c32 -20 45 -44
18 -34 -8 3 -38 6 -68 7 -58 2 -73 20 -20 25 18 2 30 8 27 13 -10 15 8 10 43
-11z m222 15 c0 -2 -10 -9 -22 -15 -22 -11 -22 -10 -4 4 21 17 26 19 26 11z
m-341 -56 c-22 -14 -33 -10 -19 6 7 8 17 12 22 9 6 -4 5 -10 -3 -15z m1293
-11 c7 7 22 12 35 12 18 0 22 -5 20 -21 -2 -11 -10 -25 -18 -30 -18 -11 -126
-12 -133 0 -10 15 57 50 72 38 9 -7 16 -7 24 1z m-963 -18 c1 13 2 13 11 0 5
-8 9 -22 9 -30 0 -11 -2 -10 -8 3 -4 10 -11 18 -16 17 -6 0 -11 7 -12 17 -2
15 -1 15 6 -2 7 -14 10 -15 10 -5z m1061 16 c0 -3 -4 -8 -10 -11 -5 -3 -10 -1
-10 4 0 6 5 11 10 11 6 0 10 -2 10 -4z m-1290 -70 c0 -3 -4 -8 -10 -11 -5 -3
-10 -1 -10 4 0 6 5 11 10 11 6 0 10 -2 10 -4z m1447 -18 c-3 -8 -6 -5 -6 6 -1
11 2 17 5 13 3 -3 4 -12 1 -19z m1836 3 c7 -7 4 -13 -8 -17 -11 -5 -20 -3 -23
4 -2 7 -12 12 -22 12 -10 0 -22 5 -26 12 -9 14 64 4 79 -11z m-1909 -88 c7
-17 -21 -120 -47 -171 -50 -101 -161 -182 -247 -182 -71 0 -149 28 -196 72
-24 22 -43 43 -42 46 1 4 -5 23 -14 43 -18 40 -24 164 -8 154 6 -3 10 1 10 9
0 17 2 17 114 22 37 1 73 7 79 13 16 16 345 10 351 -6z m-1904 -206 c0 -10 7
-33 14 -52 8 -19 13 -35 10 -35 -8 0 -51 100 -58 135 l-7 30 21 -30 c11 -16
20 -38 20 -48z m3833 6 c28 -9 20 -31 -10 -29 -26 1 -73 32 -73 48 0 3 15 2
33 -4 17 -5 40 -12 50 -15z m164 -55 c-3 -8 -6 -5 -6 6 -1 11 2 17 5 13 3 -3
4 -12 1 -19z m-2807 -22 c0 -16 -18 -31 -27 -22 -8 8 5 36 17 36 5 0 10 -6 10
-14z m30 -12 c0 -3 -7 -12 -15 -20 -12 -13 -15 -13 -15 -1 0 7 3 17 7 20 8 8
23 9 23 1z m1909 -21 c0 -25 -1 -26 -9 -8 -12 27 -12 35 0 35 6 0 10 -12 9
-27z m-54 -22 c3 -5 0 -13 -6 -16 -5 -4 -8 -13 -5 -21 7 -18 -12 -28 -28 -15
-11 9 -11 17 -2 36 11 25 30 32 41 16z m75 -52 c0 -5 -4 -9 -10 -9 -5 0 -10 7
-10 16 0 8 5 12 10 9 6 -3 10 -10 10 -16z m90 -13 c0 -2 -7 -6 -15 -10 -8 -3
-15 -1 -15 4 0 6 7 10 15 10 8 0 15 -2 15 -4z m-170 -16 c0 -5 -2 -10 -4 -10
-3 0 -8 5 -11 10 -3 6 -1 10 4 10 6 0 11 -4 11 -10z m-1800 -19 c0 -5 -10 -12
-22 -15 -20 -5 -21 -8 -8 -19 23 -18 13 -53 -24 -81 -27 -20 -40 -24 -74 -19
-41 5 -52 15 -32 28 6 3 10 19 10 34 0 27 29 63 60 74 25 9 90 8 90 -2z m1610
-157 c0 -8 -4 -14 -10 -14 -5 0 -10 9 -10 21 0 11 5 17 10 14 6 -3 10 -13 10
-21z m707 -106 c-3 -8 -6 -5 -6 6 -1 11 2 17 5 13 3 -3 4 -12 1 -19z m-997
-32 c0 -3 -4 -8 -10 -11 -5 -3 -10 -1 -10 4 0 6 5 11 10 11 6 0 10 -2 10 -4z
m870 -116 c0 -5 -5 -10 -11 -10 -5 0 -7 5 -4 10 3 6 8 10 11 10 2 0 4 -4 4
-10z m-949 -73 c-13 -13 -26 -3 -16 12 3 6 11 8 17 5 6 -4 6 -10 -1 -17z
m-1434 -139 c18 -14 5 -27 -44 -45 -41 -14 -153 -18 -153 -5 0 13 39 42 45 32
3 -5 22 2 43 16 38 26 79 27 109 2z m256 -196 c18 -16 20 -16 31 0 14 18 26
14 26 -9 0 -7 -6 -13 -14 -13 -8 0 -16 -4 -18 -8 -7 -17 -78 -63 -88 -57 -10
6 -15 87 -5 96 11 12 51 6 68 -9z m2122 -382 c3 -5 1 -10 -4 -10 -6 0 -11 5
-11 10 0 6 2 10 4 10 3 0 8 -4 11 -10z m-1650 -80 c3 -5 1 -10 -4 -10 -6 0
-11 5 -11 10 0 6 2 10 4 10 3 0 8 -4 11 -10z m1611 -117 c-10 -10 -19 5 -10
18 6 11 8 11 12 0 2 -7 1 -15 -2 -18z m-2878 -113 c-9 -13 -16 -16 -23 -9 -7
7 -5 13 5 19 24 15 31 11 18 -10z m322 -320 c-12 -23 -30 -27 -30 -7 0 17 10
27 27 27 11 0 11 -5 3 -20z m-93 -42 c-3 -8 -6 -5 -6 6 -1 11 2 17 5 13 3 -3
4 -12 1 -19z m2543 -23 c-14 -16 -40 -20 -40 -6 0 10 17 19 39 20 11 1 11 -2
1 -14z m-103 -87 c-3 -8 -6 -5 -6 6 -1 11 2 17 5 13 3 -3 4 -12 1 -19z m-50
-4 c-3 -3 -12 -4 -19 -1 -8 3 -5 6 6 6 11 1 17 -2 13 -5z m-12 -33 c3 -5 1
-12 -5 -16 -5 -3 -10 1 -10 9 0 18 6 21 15 7z m-101 -140 c3 -5 0 -11 -7 -14
-8 -3 -22 -22 -32 -44 -14 -27 -20 -33 -23 -20 -4 18 34 87 48 87 5 0 11 -4
14 -9z m-184 -31 c0 -5 -4 -10 -10 -10 -5 0 -10 5 -10 10 0 6 5 10 10 10 6 0
10 -4 10 -10z m-1692 -122 c-2 -6 -10 -14 -16 -16 -7 -2 -10 2 -6 12 7 18 28
22 22 4z m1608 -50 c-11 -10 -29 -18 -39 -18 -9 0 -26 -5 -36 -12 -20 -12 -51
-5 -51 12 0 5 13 10 29 10 17 0 33 5 36 10 3 6 17 10 30 10 16 0 26 7 31 23 7
21 7 21 14 2 6 -14 2 -25 -14 -37z m1981 -73 c23 -20 24 -25 11 -30 -22 -9
-68 23 -61 41 7 20 20 17 50 -11z m-2187 -55 c0 -5 -4 -10 -10 -10 -5 0 -10 5
-10 10 0 6 5 10 10 10 6 0 10 -4 10 -10z m1830 -24 c0 -8 -4 -18 -10 -21 -5
-3 -10 3 -10 14 0 12 5 21 10 21 6 0 10 -6 10 -14z m458 -61 c29 -30 52 -58
52 -62 0 -4 10 -17 22 -30 12 -13 17 -23 11 -23 -6 0 -16 7 -23 15 -7 8 -18
15 -25 15 -8 0 -22 11 -33 25 -11 14 -24 25 -30 25 -6 0 -13 13 -17 30 -4 16
-11 32 -16 35 -11 7 -12 25 -1 25 4 0 31 -25 60 -55z m-3948 -45 c21 -11 27
-45 10 -55 -10 -6 -14 6 -11 35 1 11 -1 10 -9 -3 -14 -21 -32 -13 -23 11 6 14
4 15 -9 4 -15 -12 -52 -7 -44 7 7 11 66 12 86 1z m3700 -5 c0 -8 -7 -15 -15
-15 -8 0 -15 7 -15 15 0 8 7 15 15 15 8 0 15 -7 15 -15z m113 -47 c53 -36 112
-91 119 -110 12 -31 -18 -33 -53 -4 -31 26 -72 33 -98 17 -8 -5 -10 -14 -6
-21 6 -10 1 -11 -19 -6 -22 5 -26 3 -26 -13 0 -14 -5 -19 -15 -15 -8 4 -22 1
-30 -6 -9 -7 -19 -9 -23 -5 -4 4 -1 10 6 12 6 3 12 11 12 19 0 8 12 33 27 57
15 23 26 46 25 51 -3 11 28 46 41 46 5 0 23 -10 40 -22z m-3763 8 c0 -3 -4 -8
-10 -11 -5 -3 -10 -1 -10 4 0 6 5 11 10 11 6 0 10 -2 10 -4z m-740 -16 c0 -5
-5 -10 -11 -10 -5 0 -7 5 -4 10 3 6 8 10 11 10 2 0 4 -4 4 -10z m796 -25 c15
-16 29 -23 40 -18 11 4 15 2 12 -7 -7 -22 -22 -22 -45 0 -12 11 -29 17 -37 14
-16 -6 -23 16 -9 29 10 11 14 9 39 -18z m-63 -5 c-3 -11 -10 -23 -16 -27 -7
-4 -8 0 -4 11 4 10 7 22 7 27 0 5 4 9 9 9 5 0 7 -9 4 -20z m-753 -30 c0 -5 -5
-10 -11 -10 -5 0 -7 5 -4 10 3 6 8 10 11 10 2 0 4 -4 4 -10z m906 -42 c35 -30
45 -41 40 -45 -3 -3 -20 9 -38 26 -32 30 -33 45 -2 19z m-76 -2 c0 -3 -4 -8
-10 -11 -5 -3 -10 -1 -10 4 0 6 5 11 10 11 6 0 10 -2 10 -4z m-33 -38 c-3 -8
-6 -5 -6 6 -1 11 2 17 5 13 3 -3 4 -12 1 -19z m183 -8 c0 -5 -5 -10 -11 -10
-5 0 -7 5 -4 10 3 6 8 10 11 10 2 0 4 -4 4 -10z m-1100 -52 c5 -16 6 -28 2
-28 -12 0 -32 62 -25 73 4 7 8 6 11 -3 2 -8 7 -27 12 -42z m41 2 c5 0 9 -8 9
-17 -1 -16 -2 -16 -15 1 -8 11 -14 27 -14 35 1 13 2 12 6 -1 2 -10 9 -18 14
-18z m4754 0 c-10 -11 -20 -18 -23 -15 -3 3 3 14 13 25 10 11 20 18 23 15 3
-3 -3 -14 -13 -25z m-315 0 c0 -11 -40 -34 -47 -26 -3 3 -3 12 0 21 7 16 47
21 47 5z m-4440 -60 c0 -5 -2 -10 -4 -10 -3 0 -8 5 -11 10 -3 6 -1 10 4 10 6
0 11 -4 11 -10z m1235 -40 c-3 -5 -12 -10 -18 -10 -7 0 -6 4 3 10 19 12 23 12
15 0z m-1237 -32 c1 -28 -1 -30 -9 -15 -6 10 -8 25 -5 33 9 22 13 17 14 -18z
m22 2 c0 -5 -2 -10 -4 -10 -3 0 -8 5 -11 10 -3 6 -1 10 4 10 6 0 11 -4 11 -10z
m870 6 c0 -3 -4 -8 -10 -11 -5 -3 -10 -1 -10 4 0 6 5 11 10 11 6 0 10 -2 10
-4z m-907 -207 c-4 -13 -9 -17 -16 -10 -12 12 -1 45 12 37 5 -3 7 -15 4 -27z
m-23 -39 c0 -5 -4 -10 -10 -10 -5 0 -10 5 -10 10 0 6 5 10 10 10 6 0 10 -4 10
-10z m945 -520 c3 -5 1 -10 -4 -10 -6 0 -11 5 -11 10 0 6 2 10 4 10 3 0 8 -4
11 -10z m4955 -23 c0 -20 37 -51 44 -38 7 11 46 -7 46 -22 0 -13 52 -57 66
-57 8 0 14 -4 14 -10 0 -5 7 -10 15 -10 21 0 65 -48 59 -65 -3 -7 -1 -16 5
-20 6 -3 8 -17 5 -30 -4 -17 0 -26 14 -34 30 -16 32 -14 32 18 0 17 4 32 9 35
5 3 7 16 4 27 -4 16 -2 20 8 17 8 -2 15 -19 17 -37 2 -18 12 -37 23 -44 10 -6
19 -20 19 -30 0 -10 5 -28 11 -39 8 -16 8 -24 -3 -35 -15 -14 -48 -9 -48 8 0
5 -9 9 -20 9 -10 0 -24 8 -29 19 -9 16 -61 36 -83 32 -5 0 -8 10 -8 24 0 16
-6 25 -15 25 -8 0 -15 -4 -15 -8 0 -18 -58 0 -63 20 -5 16 -11 19 -30 14 -16
-4 -29 0 -38 10 -11 13 -9 14 14 9 21 -6 27 -4 27 9 0 9 -8 20 -17 23 -10 4
-23 14 -29 22 -10 13 -15 13 -27 2 -12 -9 -21 -10 -36 -1 -11 6 -31 8 -45 4
-13 -3 -26 -2 -29 3 -10 15 4 53 19 53 20 0 17 9 -8 31 -30 25 -42 24 -74 -6
-14 -13 -31 -22 -37 -18 -6 4 -1 14 12 25 13 10 20 18 15 18 -16 0 39 49 60
53 52 10 116 7 116 -6z m-574 -22 c7 -28 31 -34 40 -10 10 24 22 17 29 -15 4
-18 13 -30 23 -31 41 -3 68 4 80 19 10 13 15 14 21 4 4 -7 27 -23 52 -36 27
-15 45 -32 47 -45 2 -12 8 -21 13 -21 14 0 11 -22 -8 -42 -15 -17 -15 -18 0
-18 18 0 33 -42 22 -60 -5 -8 -11 -8 -21 1 -11 9 -14 8 -14 -9 0 -13 6 -19 17
-18 10 0 19 -7 21 -17 3 -14 -1 -18 -19 -15 -17 2 -25 -3 -27 -17 -2 -11 -9
-26 -15 -33 -9 -11 -12 -11 -18 5 -3 10 -3 26 2 35 13 25 11 50 -3 45 -7 -2
-19 5 -26 17 l-13 21 6 -21 c3 -13 -1 -26 -10 -34 -8 -7 -15 -19 -15 -28 0
-28 -30 -41 -59 -26 -22 12 -28 12 -38 -2 -10 -14 -13 -13 -23 6 -12 22 -58
45 -69 35 -3 -4 2 -11 12 -16 9 -6 17 -15 17 -21 0 -10 -17 -9 -105 7 -11 2
-23 4 -26 4 -4 1 -6 7 -5 14 0 6 -3 13 -9 14 -5 2 -10 -5 -10 -15 0 -11 -8
-17 -24 -17 -12 0 -28 -8 -34 -16 -8 -10 -30 -17 -62 -18 -27 -1 -76 -4 -108
-5 -63 -4 -78 6 -53 33 9 10 16 34 16 54 0 20 6 40 13 44 7 4 18 21 25 36 7
16 21 31 32 34 11 3 20 8 20 12 0 12 77 91 89 91 8 0 10 7 6 20 -5 16 0 23 22
31 15 6 39 13 53 15 36 4 101 21 107 28 13 12 23 5 29 -19z m750 -52 c15 -20
18 -43 6 -43 -8 0 -32 43 -32 55 0 11 14 4 26 -12z m-1106 -33 c0 -15 -41 -68
-68 -90 -18 -14 -32 -33 -32 -42 0 -10 -9 -22 -20 -28 -16 -8 -20 -8 -20 4 0
8 5 18 11 21 10 7 32 51 33 70 1 6 6 10 13 10 13 0 42 34 43 49 0 4 -7 6 -15
2 -8 -3 -15 -1 -15 4 0 5 16 8 35 7 19 -1 35 -4 35 -7z m-3880 -27 c0 -20 -3
-24 -11 -16 -7 7 -9 19 -6 27 10 24 17 19 17 -11z m-153 -15 c-3 -8 -6 -5 -6
6 -1 11 2 17 5 13 3 -3 4 -12 1 -19z m230 -20 c-3 -7 -5 -2 -5 12 0 14 2 19 5
13 2 -7 2 -19 0 -25z m5023 10 c0 -19 -2 -20 -10 -8 -13 19 -13 30 0 30 6 0
10 -10 10 -22z m-510 -3 c0 -8 -7 -15 -15 -15 -8 0 -15 7 -15 15 0 8 7 15 15
15 8 0 15 -7 15 -15z m-4582 -30 c-3 -3 -9 2 -12 12 -6 14 -5 15 5 6 7 -7 10
-15 7 -18z m4782 -5 c0 -5 -11 -10 -25 -10 -14 0 -25 5 -25 10 0 6 11 10 25
10 14 0 25 -4 25 -10z m-5053 -97 c-3 -10 -5 -4 -5 12 0 17 2 24 5 18 2 -7 2
-21 0 -30z m50 7 c-2 -32 -22 -36 -23 -4 0 23 4 34 16 34 5 0 8 -13 7 -30z
m43 -5 c0 -8 -4 -15 -10 -15 -5 0 -10 7 -10 15 0 8 5 15 10 15 6 0 10 -7 10
-15z m347 -27 c-3 -7 -5 -2 -5 12 0 14 2 19 5 13 2 -7 2 -19 0 -25z m-67 12
c0 -5 -2 -10 -4 -10 -3 0 -8 5 -11 10 -3 6 -1 10 4 10 6 0 11 -4 11 -10z
m3605 0 c3 -5 2 -10 -4 -10 -5 0 -13 5 -16 10 -3 6 -2 10 4 10 5 0 13 -4 16
-10z m-4195 -16 c0 -8 -5 -12 -10 -9 -6 4 -8 11 -5 16 9 14 15 11 15 -7z m159
7 c9 -6 10 -11 2 -15 -13 -8 -31 1 -31 15 0 11 11 11 29 0z m551 -21 c0 -5 -4
-10 -10 -10 -5 0 -10 5 -10 10 0 6 5 10 10 10 6 0 10 -4 10 -10z m-43 -22 c-3
-8 -6 -5 -6 6 -1 11 2 17 5 13 3 -3 4 -12 1 -19z m3513 12 c0 -5 -4 -10 -10
-10 -5 0 -10 5 -10 10 0 6 5 10 10 10 6 0 10 -4 10 -10z m-4223 -42 c-3 -8 -6
-5 -6 6 -1 11 2 17 5 13 3 -3 4 -12 1 -19z m5783 -17 c7 -14 7 -22 -1 -27 -14
-8 -43 21 -35 35 11 17 24 13 36 -8z m-5646 -16 c-4 -8 -10 -12 -15 -9 -14 8
-10 24 6 24 9 0 12 -6 9 -15z m4966 -5 c8 -14 7 -25 -2 -39 -10 -17 -13 -17
-26 -4 -12 11 -12 19 -4 39 14 29 18 30 32 4z m-4370 -31 c0 -28 -15 -23 -16
6 -1 14 2 22 7 19 5 -3 9 -14 9 -25z m-683 -1 c-3 -8 -6 -5 -6 6 -1 11 2 17 5
13 3 -3 4 -12 1 -19z m4917 -6 c-22 -5 -31 7 -14 18 9 6 17 5 22 -3 4 -7 1
-13 -8 -15z m74 16 c-3 -7 -11 -13 -18 -13 -7 0 -15 6 -17 13 -3 7 4 12 17 12
13 0 20 -5 18 -12z m-4956 -30 c-9 -9 -12 -7 -12 12 0 19 3 21 12 12 9 -9 9
-15 0 -24z m5118 7 c0 -8 -4 -15 -9 -15 -13 0 -22 16 -14 24 11 11 23 6 23 -9z
m770 -25 c0 -5 -4 -10 -10 -10 -5 0 -10 5 -10 10 0 6 5 10 10 10 6 0 10 -4 10
-10z m-6150 -16 c0 -8 -5 -12 -10 -9 -6 4 -8 11 -5 16 9 14 15 11 15 -7z
m5325 7 c3 -5 1 -12 -5 -16 -5 -3 -10 1 -10 9 0 18 6 21 15 7z m912 -18 c4
-11 -48 -25 -57 -16 -7 7 32 34 44 30 5 -2 11 -8 13 -14z m-6154 -33 c-7 -28
-13 -25 -13 6 0 14 4 23 9 20 5 -3 7 -15 4 -26z m700 9 c17 -1 18 -2 5 -6 -10
-2 -18 -9 -18 -14 0 -5 -4 -9 -10 -9 -5 0 -10 12 -9 28 0 15 3 21 6 15 2 -7
14 -14 26 -14z m4475 -28 c-15 -5 -21 7 -13 26 7 17 8 17 15 -2 4 -11 3 -22
-2 -24z m720 26 c13 -15 -1 -42 -17 -33 -13 8 -15 46 -2 46 5 0 13 -6 19 -13z
m-1183 -36 c3 -5 1 -13 -5 -16 -15 -9 -43 3 -35 15 8 13 32 13 40 1z m-4149
-87 c-3 -8 -16 -14 -30 -14 -17 0 -25 7 -28 25 -4 17 -1 25 9 25 9 0 13 -6 10
-14 -6 -15 16 -30 27 -19 3 4 7 20 7 37 l2 31 4 -28 c3 -16 2 -35 -1 -43z
m-1841 -24 c7 -12 -16 -70 -27 -70 -4 0 -14 -13 -23 -30 -17 -33 -32 -38 -42
-14 -6 17 18 65 51 101 23 25 32 28 41 13z m4230 -110 c8 0 17 5 20 10 5 8 11
7 21 -1 8 -6 28 -9 44 -7 38 6 48 -7 24 -33 -21 -23 -40 -25 -48 -4 -3 10 -19
15 -43 15 l-38 -1 30 -24 c21 -18 24 -23 10 -19 -11 3 -27 11 -36 17 -19 14
-38 64 -20 53 7 -5 12 2 12 16 l2 23 4 -22 c2 -13 11 -23 18 -23z m-80 10 c9
-15 -41 -23 -62 -10 -16 10 -16 10 4 5 12 -3 24 -1 28 5 8 13 22 13 30 0z
m-1843 -72 c-7 -7 -12 -8 -12 -2 0 14 12 26 19 19 2 -3 -1 -11 -7 -17z m-2456
-45 c-11 -11 -17 4 -9 23 7 18 8 18 11 1 2 -10 1 -21 -2 -24z m4414 7 c0 -5
-4 -10 -10 -10 -5 0 -10 5 -10 10 0 6 5 10 10 10 6 0 10 -4 10 -10z m-1750
-51 c0 -5 -7 -9 -15 -9 -15 0 -20 12 -9 23 8 8 24 -1 24 -14z m-2665 -28 c-3
-5 -1 -12 5 -16 16 -10 12 -55 -4 -55 -8 0 -17 4 -20 9 -8 13 5 71 16 71 5 0
7 -4 3 -9z m1674 -14 c-2 -1 -12 -9 -21 -16 -15 -12 -18 -11 -18 3 0 10 8 16
22 16 12 0 19 -1 17 -3z m91 -22 c0 -8 -4 -15 -10 -15 -5 0 -10 7 -10 15 0 8
5 15 10 15 6 0 10 -7 10 -15z m281 -28 c-8 -8 -11 -7 -11 4 0 20 13 34 18 19
3 -7 -1 -17 -7 -23z m-824 -3 c-3 -3 -16 -4 -29 -2 l-23 5 25 10 c23 10 41 1
27 -13z m1077 -6 c-6 -10 -48 -11 -57 -1 -4 3 -2 12 3 18 8 10 16 10 34 2 14
-7 22 -15 20 -19z m462 2 c22 -36 39 -44 58 -24 11 10 17 11 22 2 4 -6 -3 -19
-16 -30 -25 -20 -47 -19 -42 2 2 9 -6 11 -30 7 -67 -13 -72 -12 -76 8 -2 11
-9 23 -16 27 -7 5 -5 8 6 8 9 0 19 6 22 13 3 6 3 2 0 -11 -4 -15 0 -24 11 -28
20 -8 27 -1 29 30 1 34 11 33 32 -4z m89 1 c-6 -5 -25 10 -25 20 0 5 6 4 14
-3 8 -7 12 -15 11 -17z m42 -86 c3 -9 3 -19 -1 -22 -7 -7 -36 16 -36 28 0 15
30 10 37 -6z m145 -31 c5 -44 -10 -39 -26 7 -12 33 -11 36 5 32 11 -3 18 -17
21 -39z m-3055 29 c-10 -3 -20 -18 -24 -34 -7 -37 -23 -38 -23 -1 0 36 7 42
39 41 18 -1 20 -3 8 -6z m2803 -3 c0 -5 -4 -10 -9 -10 -5 0 -16 -3 -25 -6 -11
-4 -16 -1 -16 10 0 10 9 16 25 16 14 0 25 -4 25 -10z m-2840 -99 c5 -11 7 -27
4 -36 -10 -25 -32 1 -26 30 5 30 8 31 22 6z m3133 -1 c3 -11 1 -20 -4 -20 -5
0 -9 9 -9 20 0 11 2 20 4 20 2 0 6 -9 9 -20z m87 -16 c0 -8 -5 -12 -10 -9 -6
4 -8 11 -5 16 9 14 15 11 15 -7z m-3060 -29 c0 -28 -15 -41 -23 -21 -8 19 3
57 14 50 5 -3 9 -16 9 -29z m-57 7 c10 -10 14 -21 11 -25 -10 -10 -44 12 -44
28 0 20 13 19 33 -3z m3237 -52 c0 -5 -4 -10 -10 -10 -5 0 -10 5 -10 10 0 6 5
10 10 10 6 0 10 -4 10 -10z m-67 -16 c9 -9 -4 -35 -14 -28 -5 3 -9 12 -9 20 0
14 12 19 23 8z m-3086 -26 c-3 -8 -6 -5 -6 6 -1 11 2 17 5 13 3 -3 4 -12 1
-19z"/>
<path d="M5661 5984 c-12 -14 -12 -17 0 -25 15 -9 59 -12 59 -4 0 5 -38 45
-42 45 -2 -1 -9 -8 -17 -16z"/>
<path d="M5870 5706 c0 -9 5 -16 10 -16 6 0 10 4 10 9 0 6 -4 13 -10 16 -5 3
-10 -1 -10 -9z"/>
<path d="M5823 5564 c-13 -29 -9 -44 11 -44 16 0 27 35 19 56 -8 21 -17 17
-30 -12z"/>
<path d="M5675 5460 c3 -5 10 -10 16 -10 5 0 9 5 9 10 0 6 -7 10 -16 10 -8 0
-12 -4 -9 -10z"/>
<path d="M5700 5410 c-10 -18 -8 -20 21 -20 31 0 32 0 14 20 -10 11 -19 20
-21 20 -2 0 -8 -9 -14 -20z"/>
<path d="M5265 5230 c-3 -5 -1 -10 4 -10 6 0 11 5 11 10 0 6 -2 10 -4 10 -3 0
-8 -4 -11 -10z"/>
<path d="M5552 5142 c-19 -41 -15 -58 8 -29 21 27 25 43 12 51 -4 2 -13 -7
-20 -22z"/>
<path d="M5366 5121 c-22 -24 -20 -31 9 -31 18 0 25 5 25 19 0 28 -15 33 -34
12z"/>
<path d="M4430 5003 c1 -10 50 -46 55 -41 8 8 -26 48 -41 48 -8 0 -14 -3 -14
-7z"/>
<path d="M4578 4873 c7 -3 16 -2 19 1 4 3 -2 6 -13 5 -11 0 -14 -3 -6 -6z"/>
<path d="M4610 4856 c0 -7 20 -30 45 -50 36 -30 45 -45 45 -70 0 -21 3 -27 9
-18 7 12 12 12 29 1 12 -7 24 -10 28 -7 12 13 -38 85 -72 103 -19 10 -34 21
-34 25 0 4 -11 12 -25 18 -20 9 -25 9 -25 -2z"/>
<path d="M5166 4821 c-4 -7 -5 -15 -2 -18 9 -9 19 4 14 18 -4 11 -6 11 -12 0z"/>
<path d="M5127 4774 c-4 -4 -2 -13 3 -20 6 -6 10 -16 9 -20 -4 -22 2 -44 11
-44 6 0 8 18 6 42 -3 40 -15 56 -29 42z"/>
<path d="M9142 1100 c1 -13 9 -25 16 -28 17 -5 15 23 -4 39 -14 11 -15 10 -12
-11z"/>
<path d="M8444 1265 c11 -8 27 -14 35 -14 13 1 12 2 -1 6 -10 2 -18 9 -18 14
0 5 -8 9 -17 9 -16 -1 -16 -2 1 -15z"/>
<path d="M8040 1060 c0 -5 5 -10 10 -10 6 0 10 5 10 10 0 6 -4 10 -10 10 -5 0
-10 -4 -10 -10z"/>
<path d="M7930 1035 c0 -8 5 -15 10 -15 6 0 10 7 10 15 0 8 -4 15 -10 15 -5 0
-10 -7 -10 -15z"/>
<path d="M4377 8152 c-16 -7 -26 -16 -24 -18 6 -6 99 16 111 26 15 14 -58 7
-87 -8z"/>
<path d="M5246 8142 c-8 -13 46 -23 59 -11 5 6 3 9 -7 9 -9 0 -23 3 -31 6 -8
3 -18 1 -21 -4z"/>
<path d="M5200 8131 c0 -8 -11 -10 -34 -5 -40 7 -66 -3 -45 -17 24 -15 76 -10
83 7 4 9 4 19 1 22 -3 3 -5 0 -5 -7z"/>
<path d="M5396 8079 c5 -8 -6 -9 -37 -4 -39 6 -42 5 -29 -8 8 -8 48 -19 91
-24 81 -9 99 -8 99 9 0 6 -7 7 -15 4 -15 -5 -23 -3 -72 22 -29 15 -46 15 -37
1z"/>
<path d="M5528 8073 c7 -3 16 -2 19 1 4 3 -2 6 -13 5 -11 0 -14 -3 -6 -6z"/>
<path d="M6740 7460 c0 -15 41 -73 47 -67 6 6 -24 64 -37 72 -5 3 -10 1 -10
-5z"/>
<path d="M4996 7063 c-3 -3 -3 -10 0 -14 7 -12 34 -11 34 0 0 11 -26 22 -34
14z"/>
<path d="M2840 5555 c-9 -11 -10 -19 -3 -26 7 -7 12 -2 15 15 6 30 5 31 -12
11z"/>
<path d="M2857 5463 c-4 -3 -7 -11 -7 -17 0 -6 5 -5 12 2 6 6 9 14 7 17 -3 3
-9 2 -12 -2z"/>
<path d="M2875 5421 c-3 -5 -1 -12 5 -16 5 -3 10 1 10 9 0 18 -6 21 -15 7z"/>
<path d="M2890 5370 c0 -5 5 -10 10 -10 6 0 10 5 10 10 0 6 -4 10 -10 10 -5 0
-10 -4 -10 -10z"/>
<path d="M6637 5133 c-4 -3 -7 -20 -7 -37 l1 -31 14 25 c21 38 16 67 -8 43z"/>
<path d="M6841 5093 c0 -6 -4 -20 -7 -30 -5 -14 -4 -15 5 -7 7 7 11 20 8 30
-3 11 -5 14 -6 7z"/>
<path d="M3442 4750 c2 -55 9 -63 26 -26 8 18 8 31 -1 50 -18 39 -26 31 -25
-24z"/>
<path d="M3230 4136 c0 -9 5 -16 10 -16 6 0 10 4 10 9 0 6 -4 13 -10 16 -5 3
-10 -1 -10 -9z"/>
<path d="M4278 4078 c-7 -13 -11 -26 -10 -30 1 -5 -5 -8 -13 -8 -8 0 -15 -6
-15 -13 0 -8 -11 -20 -25 -27 -29 -16 -28 -34 2 -38 14 -2 23 4 28 17 3 10 19
24 36 30 48 17 60 34 46 65 -15 32 -32 33 -49 4z"/>
<path d="M3256 4082 c-3 -5 -1 -33 4 -62 6 -29 10 -55 10 -58 0 -3 5 -1 11 5
7 7 9 28 5 55 -7 49 -20 75 -30 60z"/>
<path d="M4647 4062 c-10 -10 -17 -27 -16 -38 0 -18 1 -18 9 1 l9 20 0 -20 c1
-17 4 -15 16 9 25 47 14 64 -18 28z"/>
<path d="M4155 3979 c-4 -6 -2 -16 5 -22 10 -9 11 -9 6 0 -3 6 -1 13 6 15 9 3
9 6 1 11 -7 4 -15 2 -18 -4z"/>
<path d="M4100 3950 c0 -5 -8 -10 -19 -10 -14 0 -17 -6 -13 -25 5 -31 17 -39
38 -27 21 12 27 72 8 72 -8 0 -14 -4 -14 -10z"/>
<path d="M4014 3925 c-4 -9 -4 -26 -2 -39 4 -17 1 -23 -9 -19 -7 3 -13 14 -13
24 0 26 -19 24 -30 -3 -5 -13 -9 -17 -9 -9 -1 8 -10 2 -22 -14 -18 -22 -20
-28 -8 -36 8 -4 14 -15 14 -24 0 -8 4 -15 8 -15 4 0 11 0 16 0 5 0 13 9 16 20
8 26 23 25 35 -2 8 -21 9 -21 9 7 1 19 9 35 21 43 21 13 28 42 10 42 -5 0 -10
9 -10 20 0 23 -18 27 -26 5z"/>
<path d="M3294 3887 c-8 -21 2 -35 16 -21 5 5 6 15 0 24 -8 12 -10 12 -16 -3z"/>
<path d="M3295 3830 c-7 -12 2 -30 16 -30 5 0 9 9 9 20 0 21 -15 27 -25 10z"/>
<path d="M3460 3830 c-8 -5 -12 -11 -9 -14 3 -3 14 1 25 9 21 16 8 20 -16 5z"/>
<path d="M6256 3744 c-9 -23 10 -42 26 -26 10 10 9 16 -4 28 -14 14 -16 14
-22 -2z"/>
<path d="M6290 3750 c0 -5 5 -10 10 -10 6 0 10 5 10 10 0 6 -4 10 -10 10 -5 0
-10 -4 -10 -10z"/>
<path d="M4111 3546 c-7 -8 -8 -17 -3 -20 6 -3 12 3 15 14 6 24 4 25 -12 6z"/>
<path d="M3581 3424 c0 -11 3 -14 6 -6 3 7 2 16 -1 19 -3 4 -6 -2 -5 -13z"/>
<path d="M6160 3400 c0 -5 9 -10 20 -10 11 0 20 5 20 10 0 6 -9 10 -20 10 -11
0 -20 -4 -20 -10z"/>
<path d="M6120 3210 c0 -5 7 -10 15 -10 8 0 15 5 15 10 0 6 -7 10 -15 10 -8 0
-15 -4 -15 -10z"/>
<path d="M6270 2915 c0 -8 5 -15 10 -15 6 0 10 7 10 15 0 8 -4 15 -10 15 -5 0
-10 -7 -10 -15z"/>
<path d="M5870 2895 c-19 -23 -1 -39 21 -19 10 9 19 21 19 26 0 13 -27 9 -40
-7z"/>
<path d="M3835 2890 c-3 -5 1 -10 9 -10 9 0 16 5 16 10 0 6 -4 10 -9 10 -6 0
-13 -4 -16 -10z"/>
<path d="M7212 2766 c7 -8 16 -12 21 -9 11 7 -2 23 -19 23 -12 0 -12 -2 -2
-14z"/>
<path d="M2878 2598 c5 -5 16 -8 23 -6 8 3 3 7 -10 11 -17 4 -21 3 -13 -5z"/>
<path d="M2936 2596 c6 -16 -37 -27 -59 -14 -12 6 -149 6 -235 -1 -10 -1 -12
-38 -11 -166 1 -93 5 -162 10 -159 5 3 9 0 9 -5 0 -20 25 -11 44 15 15 21 16
28 5 34 -7 5 -17 6 -22 3 -4 -3 -7 3 -5 13 2 14 -2 18 -15 16 -13 -2 -18 2
-15 14 2 13 21 23 63 33 33 9 63 20 67 26 5 6 8 5 8 -2 0 -22 13 -14 80 48 36
33 75 68 88 76 26 18 55 67 45 77 -4 3 -19 6 -34 6 -20 0 -27 -4 -23 -14z"/>
<path d="M5918 2519 c-29 -17 -22 -39 12 -39 34 0 52 26 29 41 -17 11 -20 11
-41 -2z"/>
<path d="M2435 2500 c-3 -5 -14 -10 -24 -10 -29 0 -45 -25 -27 -43 14 -13 12
-16 -12 -22 -15 -4 -28 -6 -30 -5 -1 0 -10 -6 -18 -15 -10 -10 -13 -23 -8 -37
6 -21 7 -21 20 -3 8 10 17 15 21 12 4 -4 1 -13 -5 -19 -18 -18 -15 -37 15 -84
23 -36 32 -42 58 -41 16 1 40 -2 52 -6 19 -7 21 -4 25 42 1 28 1 94 0 146 -3
81 -6 94 -18 84 -10 -8 -14 -8 -14 0 0 14 -27 15 -35 1z"/>
<path d="M2819 2353 c-1 -5 -1 -21 -1 -38 1 -16 -2 -22 -4 -12 -8 27 -24 20
-30 -13 -4 -16 -10 -27 -15 -24 -5 2 -16 -12 -26 -32 -15 -30 -27 -40 -65 -52
-48 -15 -48 -15 -48 -58 0 -37 3 -44 20 -44 11 0 20 -4 20 -10 0 -5 4 -10 8
-10 4 0 7 16 7 35 -1 30 1 34 17 29 12 -3 18 0 18 10 0 19 17 21 23 4 2 -7 2
-3 0 10 -2 15 2 22 12 22 12 0 15 6 10 20 -5 15 -2 20 13 20 15 0 19 5 15 19
-3 13 2 21 16 26 12 3 21 11 21 16 0 5 6 9 14 9 15 0 16 29 1 63 -7 17 -24 24
-26 10z"/>
<path d="M2170 2330 c0 -5 5 -10 10 -10 6 0 10 5 10 10 0 6 -4 10 -10 10 -5 0
-10 -4 -10 -10z"/>
<path d="M1430 2305 c-41 -13 -84 -28 -95 -33 -41 -19 -121 -42 -143 -42 -19
0 -21 -4 -16 -25 6 -24 4 -25 -35 -25 -32 0 -39 -3 -35 -15 5 -12 0 -15 -23
-13 -34 2 -53 -8 -53 -28 0 -8 -5 -14 -10 -14 -6 0 -18 -17 -27 -37 -10 -21
-30 -53 -45 -71 -19 -22 -28 -44 -28 -67 0 -22 -6 -37 -17 -44 -10 -5 -14 -13
-10 -18 5 -4 328 -8 717 -8 l709 0 11 25 c6 14 23 42 37 62 l25 37 -19 33
c-103 172 -125 202 -145 205 -12 2 -26 -3 -30 -12 -8 -13 -12 -13 -36 2 -34
22 -43 34 -37 51 6 17 -5 15 -27 -5 -12 -11 -18 -12 -18 -3 0 6 -6 10 -14 7
-7 -3 -17 -2 -22 3 -11 10 -64 1 -64 -11 0 -17 -29 -9 -44 13 -12 17 -19 19
-28 10 -9 -9 -15 -9 -26 1 -24 20 -112 24 -123 6 -4 -7 -12 -8 -20 -3 -21 14
-92 12 -113 -2 -11 -7 -31 -10 -47 -7 -23 4 -27 2 -23 -13 5 -21 -33 -44 -73
-44 l-23 0 20 -20 c11 -11 20 -25 20 -30 0 -14 -49 -34 -77 -31 -15 2 -23 -4
-26 -21 -3 -17 -5 -15 -6 10 -1 34 -21 46 -21 12 0 -22 -15 -27 -24 -7 -5 10
-7 10 -12 0 -8 -18 -22 -16 -27 5 -3 15 -5 14 -13 -4 -7 -17 -14 -20 -31 -13
-30 11 -29 19 7 56 28 28 163 93 227 109 14 4 41 15 61 25 l37 18 -45 0 c-25
0 -79 -11 -120 -24z m210 -45 c0 -5 -4 -10 -9 -10 -5 0 -16 -3 -25 -6 -9 -3
-16 -1 -16 4 0 9 16 17 43 21 4 0 7 -3 7 -9z m270 -15 c0 -8 -4 -15 -10 -15
-5 0 -10 7 -10 15 0 8 5 15 10 15 6 0 10 -7 10 -15z m40 -25 c0 -5 -2 -10 -4
-10 -3 0 -8 5 -11 10 -3 6 -1 10 4 10 6 0 11 -4 11 -10z m120 -14 c0 -2 -7 -7
-16 -10 -8 -3 -12 -2 -9 4 6 10 25 14 25 6z m-548 -66 c-2 -16 -9 -30 -14 -30
-6 0 -7 7 -4 16 3 9 6 25 6 35 0 11 4 18 8 15 5 -3 7 -19 4 -36z m-314 13 c2
-9 -7 -13 -27 -13 -31 0 -42 14 -18 23 19 8 40 3 45 -10z m352 8 c0 -6 -4 -13
-10 -16 -5 -3 -10 1 -10 9 0 9 5 16 10 16 6 0 10 -4 10 -9z m420 -1 c0 -5 -4
-10 -10 -10 -5 0 -10 5 -10 10 0 6 5 10 10 10 6 0 10 -4 10 -10z m110 0 c0 -5
-4 -10 -10 -10 -5 0 -10 5 -10 10 0 6 5 10 10 10 6 0 10 -4 10 -10z m117 4
c-3 -3 -12 -4 -19 -1 -8 3 -5 6 6 6 11 1 17 -2 13 -5z m-727 -50 c0 -8 -5 -12
-10 -9 -6 4 -8 11 -5 16 9 14 15 11 15 -7z m650 -34 c0 -5 -2 -10 -4 -10 -3 0
-8 5 -11 10 -3 6 -1 10 4 10 6 0 11 -4 11 -10z m-582 -18 c3 -9 -2 -13 -14
-10 -9 1 -19 9 -22 16 -3 9 2 13 14 10 9 -1 19 -9 22 -16z m522 9 c0 -12 -28
-22 -34 -12 -3 5 -3 11 1 15 9 9 33 7 33 -3z m-600 -11 c0 -5 -5 -10 -11 -10
-5 0 -7 5 -4 10 3 6 8 10 11 10 2 0 4 -4 4 -10z m645 -19 c-6 -5 -25 10 -25
20 0 5 6 4 14 -3 8 -7 12 -15 11 -17z m-28 -36 c9 -25 -4 -29 -17 -6 -7 15 -7
21 0 21 6 0 13 -7 17 -15z m-38 -29 c-2 -2 -15 -7 -29 -10 l-25 -7 25 21 c15
14 26 18 28 10 2 -6 2 -13 1 -14z m-9 -56 c0 -5 -2 -10 -4 -10 -3 0 -8 5 -11
10 -3 6 -1 10 4 10 6 0 11 -4 11 -10z"/>
<path d="M2714 2304 c3 -9 6 -18 6 -20 0 -3 5 -2 10 1 16 10 12 35 -6 35 -11
0 -14 -5 -10 -16z"/>
<path d="M2180 2300 c0 -5 7 -10 16 -10 8 0 12 5 9 10 -3 6 -10 10 -16 10 -5
0 -9 -4 -9 -10z"/>
<path d="M9365 2290 c4 -6 11 -8 16 -5 14 9 11 15 -7 15 -8 0 -12 -5 -9 -10z"/>
<path d="M1420 2210 c0 -5 5 -10 10 -10 6 0 10 5 10 10 0 6 -4 10 -10 10 -5 0
-10 -4 -10 -10z"/>
<path d="M2420 2195 c0 -8 7 -15 16 -15 11 0 14 -5 10 -16 -3 -8 1 -29 10 -46
l16 -30 14 27 c18 35 18 55 -1 55 -8 0 -15 5 -15 10 0 6 -9 10 -21 10 -11 0
-17 5 -14 10 3 6 1 10 -4 10 -6 0 -11 -7 -11 -15z"/>
<path d="M1414 2179 c-4 -8 0 -9 15 -4 17 5 20 3 14 -12 -6 -16 -5 -16 10 -4
9 7 17 17 17 22 0 13 -48 11 -56 -2z"/>
<path d="M2887 2169 c4 -13 8 -18 11 -10 2 7 -1 18 -6 23 -8 8 -9 4 -5 -13z"/>
<path d="M2487 2087 c-3 -8 -2 -19 3 -26 5 -10 9 -8 14 4 3 9 6 21 6 26 0 14
-17 11 -23 -4z"/>
<path d="M1008 1740 l-197 -5 286 -168 c271 -159 287 -167 307 -152 12 8 30
22 42 30 31 23 112 35 167 24 27 -5 69 -22 93 -39 25 -16 47 -30 49 -30 2 0
73 41 157 90 145 86 153 92 150 119 -2 16 2 32 8 36 16 10 26 -3 13 -16 -6 -6
-9 -18 -6 -25 8 -21 59 10 67 41 4 14 11 25 16 25 5 0 7 -7 4 -15 -8 -19 -4
-19 34 1 18 8 32 22 32 30 0 8 10 14 25 14 14 0 25 5 25 11 0 6 -7 9 -15 5 -8
-3 -21 1 -28 9 -11 11 -61 14 -243 14 -126 0 -355 2 -509 3 -154 2 -369 1
-477 -2z m1121 -72 c0 -7 -4 -22 -8 -32 -10 -25 -22 -6 -14 22 6 23 23 31 22
10z"/>
<path d="M2261 1736 c12 -10 59 -15 59 -6 0 5 -14 10 -32 10 -17 0 -29 -2 -27
-4z"/>
<path d="M2206 1531 c-4 -7 -5 -15 -2 -18 9 -9 19 4 14 18 -4 11 -6 11 -12 0z"/>
<path d="M2147 1503 c-10 -9 -9 -41 2 -47 5 -3 11 8 13 24 4 29 -1 37 -15 23z"/>
<path d="M2118 1484 c-5 -4 -8 -16 -8 -28 0 -14 3 -17 11 -9 6 6 9 19 7 28 -1
9 -6 13 -10 9z"/>
<path d="M2220 1440 c0 -5 5 -10 10 -10 6 0 10 5 10 10 0 6 -4 10 -10 10 -5 0
-10 -4 -10 -10z"/>
<path d="M2097 1423 c-4 -3 -4 -16 -1 -29 4 -16 0 -26 -15 -36 -12 -7 -21 -17
-21 -22 0 -4 6 -3 13 3 8 6 17 8 21 4 3 -4 13 2 21 13 14 18 14 18 15 -4 0
-14 5 -22 13 -19 6 2 12 20 12 40 0 40 -4 44 -23 25 -9 -9 -12 -8 -12 4 0 19
-14 31 -23 21z"/>
<path d="M2290 1369 c0 -5 5 -7 10 -4 6 3 10 8 10 11 0 2 -4 4 -10 4 -5 0 -10
-5 -10 -11z"/>
<path d="M2170 1350 c0 -5 5 -10 10 -10 6 0 10 5 10 10 0 6 -4 10 -10 10 -5 0
-10 -4 -10 -10z"/>
<path d="M2214 1336 c-4 -11 -14 -16 -25 -13 -11 3 -19 0 -19 -8 0 -21 49 -15
56 7 7 25 -3 37 -12 14z"/>
<path d="M2130 1310 c0 -6 -8 -10 -17 -8 -13 2 -19 -5 -21 -22 -3 -24 -3 -25
12 -5 12 16 17 17 24 7 7 -11 10 -10 16 3 9 24 8 35 -4 35 -5 0 -10 -5 -10
-10z"/>
<path d="M2022 1270 c-7 -12 -8 -20 -2 -20 5 0 10 -8 10 -18 0 -27 10 -32 31
-19 16 10 21 9 29 -3 8 -12 10 -12 15 2 8 21 -2 39 -19 32 -7 -3 -18 7 -24 21
-14 30 -23 31 -40 5z"/>
<path d="M2160 1249 c0 -11 5 -17 10 -14 6 3 10 13 10 21 0 8 -4 14 -10 14 -5
0 -10 -9 -10 -21z"/>
<path d="M2240 1230 c0 -5 5 -10 10 -10 6 0 10 5 10 10 0 6 -4 10 -10 10 -5 0
-10 -4 -10 -10z"/>
<path d="M2120 1140 c0 -5 4 -10 9 -10 5 0 16 -3 25 -6 11 -4 16 -1 16 10 0
10 -9 16 -25 16 -14 0 -25 -4 -25 -10z"/>
<path d="M1962 1120 c0 -14 2 -19 5 -12 2 6 2 18 0 25 -3 6 -5 1 -5 -13z"/>
<path d="M2057 1093 c6 -16 25 -13 31 5 2 6 -6 10 -16 9 -12 -1 -18 -6 -15
-14z"/>
<path d="M1965 1081 c-8 -14 10 -22 30 -15 13 5 14 8 3 15 -17 11 -26 11 -33
0z"/>
<path d="M1870 1050 c0 -5 5 -10 10 -10 6 0 10 5 10 10 0 6 -4 10 -10 10 -5 0
-10 -4 -10 -10z"/>
<path d="M3981 1000 c0 -19 4 -42 9 -50 7 -11 10 -8 9 15 0 17 -4 39 -9 50 -7
16 -9 14 -9 -15z"/>
<path d="M4010 995 c0 -8 10 -25 21 -36 17 -17 23 -19 30 -8 15 23 10 39 -11
39 -11 0 -20 5 -20 10 0 6 -4 10 -10 10 -5 0 -10 -7 -10 -15z"/>
<path d="M3725 990 c-3 -5 -1 -10 4 -10 6 0 11 5 11 10 0 6 -2 10 -4 10 -3 0
-8 -4 -11 -10z"/>
<path d="M3870 924 c0 -8 5 -12 10 -9 6 4 8 11 5 16 -9 14 -15 11 -15 -7z"/>
<path d="M3905 930 c3 -5 13 -10 21 -10 8 0 14 5 14 10 0 6 -9 10 -21 10 -11
0 -17 -4 -14 -10z"/>
<path d="M3767 796 c-4 -10 0 -12 14 -9 22 6 26 23 5 23 -8 0 -16 -6 -19 -14z"/>
<path d="M3396 783 c-9 -9 -7 -33 3 -33 12 0 22 28 12 34 -5 3 -11 3 -15 -1z"/>
<path d="M3788 774 c-27 -14 -40 -46 -16 -41 6 1 15 -9 19 -23 4 -15 7 -18 8
-8 1 9 11 24 23 32 12 9 19 19 15 22 -4 4 -2 13 4 21 16 18 -17 17 -53 -3z"/>
<path d="M3352 771 c2 -7 7 -12 11 -12 12 1 9 15 -3 20 -7 2 -11 -2 -8 -8z"/>
<path d="M9678 743 c7 -3 16 -2 19 1 4 3 -2 6 -13 5 -11 0 -14 -3 -6 -6z"/>
<path d="M3817 644 c-9 -10 2 -24 19 -24 8 0 14 7 14 15 0 15 -21 21 -33 9z"/>
<path d="M3880 620 c0 -16 5 -30 10 -30 6 0 10 14 10 30 0 17 -4 30 -10 30 -5
0 -10 -13 -10 -30z"/>
<path d="M3986 612 c-3 -6 -1 -14 5 -17 15 -10 25 3 12 16 -7 7 -13 7 -17 1z"/>
<path d="M4132 478 c6 -18 28 -21 28 -4 0 9 -7 16 -16 16 -9 0 -14 -5 -12 -12z"/>
<path d="M4010 463 c0 -4 5 -15 10 -23 8 -13 10 -13 10 2 0 9 -4 20 -10 23 -5
3 -10 3 -10 -2z"/>
<path d="M4190 459 c0 -5 5 -7 10 -4 6 3 10 8 10 11 0 2 -4 4 -10 4 -5 0 -10
-5 -10 -11z"/>
<path d="M4420 446 c0 -9 5 -16 10 -16 6 0 10 4 10 9 0 6 -4 13 -10 16 -5 3
-10 -1 -10 -9z"/>
<path d="M3230 389 c0 -5 5 -7 10 -4 6 3 10 8 10 11 0 2 -4 4 -10 4 -5 0 -10
-5 -10 -11z"/>
<path d="M3066 363 c-11 -11 -6 -23 9 -23 8 0 15 4 15 9 0 13 -16 22 -24 14z"/>
</g>
</svg>
